<?xml version="1.0" encoding="UTF-8"?>
<!DOCTYPE svg PUBLIC "-//W3C//DTD SVG 1.1//EN" "http://www.w3.org/Graphics/SVG/1.1/DTD/svg11.dtd">
<svg xmlns="http://www.w3.org/2000/svg" xml:space="preserve" width="166.745mm" height="22.8819mm" version="1.1" style="shape-rendering:geometricPrecision; text-rendering:geometricPrecision; image-rendering:optimizeQuality; fill-rule:evenodd; clip-rule:evenodd" viewBox="0 0 17838 2448" xmlns:xlink="http://www.w3.org/1999/xlink">
 <defs>
  <style type="text/css">
   <![CDATA[
    .str0 {stroke:black;stroke-width:21.3952;stroke-dasharray:42.790396 64.185594}
    .fil1 {fill:none}
    .fil0 {fill:black;fill-rule:nonzero}
   ]]>
  </style>
 </defs>
 <g>
  <g>
   <path class="fil0" d="M253 843l-19 0 0 -323 38 0 0 323 -19 0zm17364 -148l-17364 0 0 -27 17364 0 0 27zm221 -13l-233 116 0 -233 233 116z"/>
  </g>
  <polygon class="fil0" points="11096,2038 11096,2441 11235,2441 11235,2417 11122,2417 11122,2038 "/>
  <path id="1" class="fil0" d="M11507 2321c2,-78 -50,-132 -117,-132 -60,0 -120,44 -120,130 0,72 45,129 121,129 61,0 94,-39 108,-67l-21 -12c-16,33 -46,56 -86,56 -52,0 -101,-41 -98,-104l211 0zm-209 -23c7,-48 42,-86 92,-86 49,0 85,37 91,86l-184 0z"/>
  <path id="2" class="fil0" d="M11779 2238c-24,-33 -57,-48 -96,-48 -72,0 -120,53 -120,129 0,81 56,130 120,130 32,0 71,-13 96,-51l0 44 24 0 0 -246 -24 0 0 43zm-95 -25c42,0 96,31 96,104 0,57 -34,109 -95,109 -62,0 -97,-53 -97,-109 0,-67 47,-104 96,-104z"/>
  <path id="3" class="fil0" d="M12020 2229c-11,-27 -36,-40 -65,-40 -37,0 -66,26 -66,63 0,14 5,25 11,32 12,16 33,24 62,36 30,12 47,22 47,50 0,32 -24,54 -55,54 -27,0 -53,-17 -62,-50l-24 7c10,41 44,65 85,65 38,0 80,-22 80,-78 0,-14 -2,-27 -13,-40 -16,-20 -39,-27 -59,-34 -27,-11 -48,-18 -48,-43 0,-18 14,-39 42,-39 18,0 34,8 43,28l21 -11z"/>
  <path id="4" class="fil0" d="M12317 2321c2,-78 -50,-132 -117,-132 -60,0 -120,44 -120,130 0,72 45,129 121,129 61,0 94,-39 108,-67l-21 -12c-16,33 -46,56 -86,56 -52,0 -101,-41 -98,-104l211 0zm-209 -23c7,-48 42,-86 92,-86 49,0 85,37 91,86l-184 0z"/>
  <polygon id="5" class="fil0" points="12592,2038 12399,2038 12399,2441 12592,2441 12592,2417 12426,2417 12426,2233 12589,2233 12589,2209 12426,2209 12426,2063 12592,2063 "/>
  <path id="6" class="fil0" d="M12668 2441l24 0 0 -128c0,-24 2,-47 13,-66 9,-16 27,-34 60,-34 30,0 43,15 48,24 9,14 10,33 10,50l0 155 24 0 0 -155c0,-22 -1,-45 -12,-62 -5,-8 -24,-34 -68,-34 -42,0 -64,24 -75,44l0 -39 -24 0 0 246z"/>
  <path id="7" class="fil0" d="M13136 2238c-19,-28 -51,-48 -95,-48 -60,0 -121,37 -121,127 0,86 59,131 121,131 31,0 71,-13 95,-51l0 44 24 0 0 -440 -24 0 0 237zm-95 -25c61,0 97,46 97,104 0,72 -46,109 -95,109 -50,0 -97,-37 -97,-109 0,-69 45,-104 95,-104z"/>
  <polygon id="8" class="fil0" points="13447,2063 13447,2038 13212,2038 13212,2063 13316,2063 13316,2441 13343,2441 13343,2063 "/>
  <path id="9" class="fil0" d="M13469 2195l0 246 24 0 0 -246 -24 0zm12 -60c12,0 22,-9 22,-22 0,-13 -10,-22 -22,-22 -12,0 -22,9 -22,22 0,13 10,22 22,22z"/>
  <path id="10" class="fil0" d="M13580 2441l24 0 0 -143c0,-49 20,-86 63,-86 53,0 54,55 54,71l0 158 24 0 0 -149c0,-15 1,-80 66,-80 11,0 26,2 37,14 13,14 14,34 14,51l0 164 24 0 0 -164c0,-20 -1,-47 -21,-67 -11,-11 -28,-21 -56,-21 -33,0 -59,15 -73,45 -5,-13 -21,-45 -69,-45 -17,0 -45,4 -64,36l0 -31 -24 0 0 246z"/>
  <path id="11" class="fil0" d="M14194 2321c2,-78 -50,-132 -117,-132 -60,0 -120,44 -120,130 0,72 45,129 121,129 61,0 94,-39 108,-67l-21 -12c-16,33 -46,56 -86,56 -52,0 -101,-41 -98,-104l211 0zm-209 -23c7,-48 42,-86 92,-86 49,0 85,37 91,86l-184 0z"/>
  <g>
   <path class="fil0" d="M11219 682l0 6 0 6 -1 6 -1 6 -1 5 -2 5 -2 5 -2 5 -2 5 -2 5 -3 5 -3 5 -3 4 -3 4 -4 4 -4 4 -4 4 -4 4 -4 3 -4 3 -5 3 -5 3 -5 2 -5 2 -5 2 -5 2 -5 2 -5 1 -6 1 -6 1 -6 0 -6 0 0 0 -6 0 -6 0 -6 -1 -6 -1 -5 -1 -5 -2 -5 -2 -5 -2 -5 -2 -5 -2 -5 -3 -5 -3 -4 -3 -4 -3 -4 -4 -4 -4 -4 -4 -4 -4 -3 -4 -3 -4 -3 -5 -3 -5 -2 -5 -2 -5 -2 -5 -2 -5 -2 -5 -1 -5 -1 -6 -1 -6 0 -6 0 -6 0 0 0 -6 0 -6 1 -6 1 -6 1 -5 2 -5 2 -5 2 -5 2 -5 2 -5 3 -5 3 -5 3 -4 3 -4 4 -4 4 -4 4 -4 4 -4 4 -3 4 -3 5 -3 5 -3 5 -2 5 -2 5 -2 5 -2 5 -2 5 -1 6 -1 6 -1 6 0 6 0 0 0 6 0 6 0 6 1 6 1 5 1 5 2 5 2 5 2 5 2 5 2 5 3 5 3 4 3 4 3 4 4 4 4 4 4 4 4 3 4 3 4 3 5 3 5 2 5 2 5 2 5 2 5 2 5 1 5 1 6 1 6 0 6 0 6 0 0zm-102 43l-21 0 0 -43 21 0 0 43zm0 107l-21 0 0 -43 21 0 0 43zm0 107l-21 0 0 -43 21 0 0 43zm0 107l-21 0 0 -43 21 0 0 43zm0 107l-21 0 0 -43 21 0 0 43zm0 107l-21 0 0 -43 21 0 0 43zm0 107l-21 0 0 -43 21 0 0 43zm0 107l-21 0 0 -43 21 0 0 43zm0 107l-21 0 0 -43 21 0 0 43zm0 107l-21 0 0 -43 21 0 0 43zm0 107l-21 0 0 -43 21 0 0 43zm0 107l-21 0 0 -43 21 0 0 43z"/>
  </g>
  <g>
   <path class="fil0" d="M1196 682l-102 -129 57 0 0 24 0 5 1 5 1 5 2 4 2 4 2 4 3 3 3 3 3 3 3 2 4 2 4 2 4 1 4 1 4 1 4 0 4 0 4 0 4 -1 4 -1 4 -1 4 -2 3 -2 3 -2 3 -3 3 -3 2 -3 2 -4 2 -4 1 -5 1 -5 0 -5 0 0 0 -25 59 0 0 30 -1 12 -2 12 -3 11 -4 10 -5 9 -5 8 -6 8 -7 7 -7 6 -8 5 -8 4 -9 4 -9 3 -9 2 -9 1 -10 1 -10 0 -9 -1 -9 -2 -9 -3 -9 -3 -8 -4 -8 -5 -7 -6 -7 -7 -6 -7 -5 -8 -5 -9 -4 -10 -3 -10 -2 -11 -1 -12 0 0 0 -35 102 129zm11 43l-21 0 0 -43 21 0 0 43zm0 107l-21 0 0 -43 21 0 0 43zm0 107l-21 0 0 -43 21 0 0 43zm0 107l-21 0 0 -43 21 0 0 43zm0 107l-21 0 0 -43 21 0 0 43zm0 107l-21 0 0 -43 21 0 0 43z"/>
  </g>
  <polygon class="fil0" points="763,234 763,269 895,269 895,234 "/>
  <path id="1" class="fil0" d="M1035 380l42 0 0 -380 -33 0c-6,59 -36,69 -90,69l0 34 81 0 0 277z"/>
  <path id="2" class="fil0" d="M1225 7l-23 196 38 0c11,-24 28,-35 53,-35 54,0 63,46 63,89 0,48 -16,92 -61,92 -43,0 -56,-29 -56,-69l-44 0c0,69 33,107 101,107 79,0 104,-70 104,-137 0,-62 -27,-121 -97,-121 -26,0 -43,10 -61,27l17 -113 128 0 0 -38 -162 0z"/>
  <path id="3" class="fil0" d="M1501 98l-40 0 0 282 40 0 0 -191c0,-44 29,-64 57,-64 33,0 43,20 43,49l0 207 40 0 0 -191c0,-44 27,-64 58,-64 34,0 42,21 42,53l0 203 40 0 0 -218c0,-51 -30,-72 -70,-72 -27,0 -55,14 -74,43 -10,-32 -36,-43 -66,-43 -34,0 -57,20 -70,39l-1 0 0 -31z"/>
  <path class="fil0" d="M1096 1315l0 189c0,33 2,55 17,77 23,33 58,41 86,41 27,0 63,-8 86,-41 15,-23 17,-44 17,-77l0 -189 -20 0 0 189c0,29 -1,47 -13,65 -18,29 -51,35 -70,35 -19,0 -53,-6 -70,-35 -11,-18 -13,-37 -13,-65l0 -189 -20 0z"/>
  <path id="1" class="fil0" d="M1473 1458c-9,-20 -27,-30 -48,-30 -28,0 -49,19 -49,48 0,11 4,19 8,24 9,12 25,18 46,27 22,9 35,17 35,38 0,24 -18,41 -41,41 -20,0 -40,-13 -46,-37l-18 5c8,31 33,49 64,49 29,0 60,-17 60,-59 0,-10 -2,-20 -10,-30 -12,-15 -29,-20 -44,-26 -20,-8 -36,-14 -36,-33 0,-14 10,-29 31,-29 13,0 26,6 32,21l15 -8z"/>
  <path id="2" class="fil0" d="M1695 1527c2,-59 -38,-99 -87,-99 -45,0 -90,33 -90,97 0,54 34,96 91,96 46,0 70,-29 81,-50l-15 -9c-12,24 -34,42 -64,42 -39,0 -76,-31 -73,-78l158 0zm-157 -17c5,-36 32,-64 69,-64 37,0 64,28 68,64l-138 0z"/>
  <path id="3" class="fil0" d="M1748 1617l18 0 0 -99c0,-23 0,-72 38,-72 8,0 12,2 14,4l9 -16c-7,-4 -14,-5 -19,-5 -20,0 -34,12 -41,28l0 -24 -18 0 0 185z"/>
  <polygon id="4" class="fil0" points="1957,1617 1977,1617 1977,1315 1919,1315 1910,1333 1957,1333 "/>
  <polygon id="5" class="fil0" points="1086,1794 1086,2020 1101,2020 1101,1794 "/>
  <path id="6" class="fil0" d="M1206 1913c39,0 66,-22 66,-60 0,-39 -29,-59 -66,-59l-44 0 0 227 15 0 0 -108 29 0zm-29 -105l28 0c33,0 52,18 52,46 0,29 -20,46 -50,46l-30 0 0 -92z"/>
  <path id="7" class="fil0" d="M1304 1891c0,7 5,13 13,13 7,0 13,-5 13,-13 0,-7 -5,-13 -13,-13 -7,0 -13,5 -13,13zm0 119c0,7 5,13 13,13 7,0 13,-5 13,-13 0,-7 -5,-13 -13,-13 -7,0 -13,5 -13,13z"/>
  <polygon id="8" class="fil0" points="1523,2020 1538,2020 1538,1794 1494,1794 1487,1807 1523,1807 "/>
  <path id="9" class="fil0" d="M1700 2024l75 -107c4,-5 15,-22 15,-46 0,-47 -34,-80 -80,-80 -48,0 -81,35 -81,80 0,46 34,79 79,79 10,0 20,-2 31,-6l-50 72 12 9zm10 -220c37,0 65,29 65,66 0,38 -27,66 -65,66 -37,0 -65,-27 -65,-66 0,-37 28,-66 65,-66z"/>
  <path id="10" class="fil0" d="M1963 2020l0 -14 -108 0 73 -80c6,-7 15,-17 20,-24 9,-12 16,-27 16,-47 0,-37 -28,-65 -67,-65 -24,0 -40,10 -50,20 -10,11 -18,27 -18,48l15 0c0,-17 6,-30 13,-37 12,-14 27,-17 39,-17 31,0 53,22 53,51 0,16 -7,29 -13,39 -8,12 -17,22 -25,31l-87 96 140 0z"/>
  <path id="11" class="fil0" d="M2010 2010c0,7 5,13 13,13 7,0 13,-5 13,-13 0,-7 -5,-13 -13,-13 -7,0 -13,5 -13,13z"/>
  <polygon id="12" class="fil0" points="2150,2020 2165,2020 2165,1794 2121,1794 2114,1807 2150,1807 "/>
  <path id="13" class="fil0" d="M2346 1791l-75 107c-4,5 -15,22 -15,46 0,47 34,80 80,80 47,0 81,-35 81,-80 0,-46 -34,-79 -79,-79 -10,0 -20,2 -31,6l50 -71 -12 -9zm-10 220c-37,0 -65,-28 -65,-66 0,-38 27,-66 65,-66 37,0 65,27 65,66 0,37 -28,66 -65,66z"/>
  <path id="14" class="fil0" d="M2551 1903c31,-16 32,-46 32,-52 0,-34 -26,-60 -60,-60 -34,0 -60,25 -60,60 0,7 1,36 32,52 -24,9 -37,33 -37,57 0,39 30,64 66,64 36,0 66,-24 66,-64 0,-25 -13,-48 -37,-57l0 0zm-29 -6c-24,0 -45,-19 -45,-46 0,-27 20,-46 45,-46 25,0 44,19 44,46 0,27 -20,46 -44,46zm0 114c-31,0 -50,-22 -50,-50 0,-30 21,-51 50,-51 29,0 50,21 50,51 0,28 -19,50 -50,50z"/>
  <path id="15" class="fil0" d="M2637 2010c0,7 5,13 13,13 7,0 13,-5 13,-13 0,-7 -5,-13 -13,-13 -7,0 -13,5 -13,13z"/>
  <path id="16" class="fil0" d="M2777 1791c-15,0 -35,5 -53,28 -18,21 -29,52 -29,89 0,37 11,68 29,89 16,19 36,28 53,28 17,0 37,-8 53,-28 18,-21 29,-52 29,-89 0,-37 -11,-68 -29,-89 -18,-22 -39,-28 -53,-28zm0 220c-8,0 -25,-2 -42,-23 -15,-18 -24,-44 -24,-80 0,-36 10,-62 24,-80 8,-10 22,-23 42,-23 20,0 34,13 42,23 15,18 24,44 24,80 0,36 -10,62 -24,80 -17,21 -34,23 -42,23z"/>
  <path id="17" class="fil0" d="M2892 2010c0,7 5,13 13,13 7,0 13,-5 13,-13 0,-7 -5,-13 -13,-13 -7,0 -13,5 -13,13z"/>
  <polygon id="18" class="fil0" points="3031,2020 3046,2020 3046,1794 3003,1794 2996,1807 3031,1807 "/>
  <polygon id="19" class="fil0" points="1086,2169 1086,2395 1164,2395 1164,2382 1101,2382 1101,2169 "/>
  <path id="20" class="fil0" d="M1317 2328c1,-44 -28,-74 -66,-74 -34,0 -67,25 -67,73 0,40 25,72 68,72 34,0 53,-22 61,-38l-12 -7c-9,18 -26,32 -48,32 -29,0 -57,-23 -55,-58l119 0zm-118 -13c4,-27 24,-48 52,-48 28,0 48,21 51,48l-103 0z"/>
  <path id="21" class="fil0" d="M1470 2281c-13,-19 -32,-27 -54,-27 -40,0 -68,30 -68,72 0,46 31,73 68,73 18,0 40,-7 54,-29l0 25 14 0 0 -139 -14 0 0 24zm-53 -14c24,0 54,17 54,58 0,32 -19,61 -54,61 -35,0 -54,-30 -54,-61 0,-38 26,-58 54,-58z"/>
  <path id="22" class="fil0" d="M1606 2276c-6,-15 -20,-22 -36,-22 -21,0 -37,15 -37,36 0,8 3,14 6,18 7,9 19,13 35,20 17,7 26,13 26,28 0,18 -13,31 -31,31 -15,0 -30,-10 -35,-28l-13 4c6,23 25,37 48,37 21,0 45,-13 45,-44 0,-8 -1,-15 -7,-22 -9,-11 -22,-15 -33,-19 -15,-6 -27,-10 -27,-24 0,-10 8,-22 23,-22 10,0 19,5 24,16l12 -6z"/>
  <path id="23" class="fil0" d="M1772 2328c1,-44 -28,-74 -66,-74 -34,0 -67,25 -67,73 0,40 25,72 68,72 34,0 53,-22 61,-38l-12 -7c-9,18 -26,32 -48,32 -29,0 -57,-23 -55,-58l119 0zm-118 -13c4,-27 24,-48 52,-48 28,0 48,21 51,48l-103 0z"/>
  <path id="24" class="fil0" d="M1863 2395c20,0 55,-3 84,-32 24,-24 33,-57 33,-82 0,-25 -8,-58 -33,-82 -29,-29 -64,-32 -84,-32l-45 0 0 227 45 0zm-30 -213l30 0c59,0 101,42 101,100 0,59 -41,100 -101,100l-30 0 0 -199z"/>
  <path id="25" class="fil0" d="M2022 2257l0 87c0,11 1,26 11,38 11,14 27,17 39,17 12,0 29,-3 39,-17 10,-12 11,-27 11,-38l0 -87 -14 0 0 84c0,10 0,24 -9,35 -8,10 -21,11 -28,11 -6,0 -19,-1 -28,-11 -8,-10 -9,-25 -9,-35l0 -84 -14 0z"/>
  <path id="26" class="fil0" d="M2171 2395l14 0 0 -74c0,-17 0,-54 28,-54 6,0 9,2 10,3l7 -12c-5,-3 -11,-3 -15,-3 -15,0 -25,9 -31,21l0 -18 -14 0 0 139z"/>
  <path id="27" class="fil0" d="M2372 2281c-13,-19 -32,-27 -54,-27 -40,0 -68,30 -68,72 0,46 31,73 68,73 18,0 40,-7 54,-29l0 25 14 0 0 -139 -14 0 0 24zm-53 -14c24,0 54,17 54,58 0,32 -19,61 -54,61 -35,0 -54,-30 -54,-61 0,-38 26,-58 54,-58z"/>
  <polygon id="28" class="fil0" points="2473,2270 2473,2257 2449,2257 2449,2207 2436,2207 2436,2257 2420,2257 2420,2270 2436,2270 2436,2395 2449,2395 2449,2270 "/>
  <path id="29" class="fil0" d="M2501 2257l0 139 14 0 0 -139 -14 0zm7 -34c7,0 12,-5 12,-13 0,-7 -5,-13 -12,-13 -7,0 -12,5 -12,13 0,7 5,13 12,13z"/>
  <path id="30" class="fil0" d="M2627 2254c-41,0 -73,32 -73,73 0,41 32,73 73,73 41,0 73,-32 73,-73 0,-41 -32,-73 -73,-73zm0 132c-33,0 -58,-26 -58,-60 0,-34 25,-60 58,-60 33,0 58,26 58,60 0,34 -25,60 -58,60z"/>
  <path id="31" class="fil0" d="M2740 2395l14 0 0 -72c0,-14 1,-26 7,-37 5,-9 15,-19 34,-19 17,0 24,8 27,14 5,8 5,18 5,28l0 87 14 0 0 -87c0,-12 -1,-25 -7,-35 -3,-5 -14,-19 -38,-19 -23,0 -36,13 -42,25l0 -22 -14 0 0 139z"/>
  <path id="32" class="fil0" d="M2887 2266c0,7 5,13 13,13 7,0 13,-5 13,-13 0,-7 -5,-13 -13,-13 -7,0 -13,5 -13,13zm0 119c0,7 5,13 13,13 7,0 13,-5 13,-13 0,-7 -5,-13 -13,-13 -7,0 -13,5 -13,13z"/>
  <polygon id="33" class="fil0" points="3106,2395 3120,2395 3120,2169 3077,2169 3070,2182 3106,2182 "/>
  <path id="34" class="fil0" d="M3359 2169l-87 0 -29 96c10,-6 21,-10 35,-10 38,0 64,27 64,65 0,38 -27,65 -65,65 -23,0 -42,-11 -55,-29l-13 5c16,28 44,37 68,37 44,0 80,-30 80,-79 0,-45 -31,-78 -79,-78 -5,0 -10,1 -15,2l19 -61 76 0 0 -14z"/>
  <path id="35" class="fil0" d="M3410 2395l14 0 0 -80c0,-28 11,-49 35,-49 30,0 31,31 31,40l0 89 14 0 0 -84c0,-8 0,-45 37,-45 6,0 15,1 21,8 7,8 8,19 8,29l0 92 14 0 0 -92c0,-11 -1,-26 -12,-38 -6,-6 -16,-12 -31,-12 -18,0 -33,8 -41,25 -3,-7 -12,-25 -39,-25 -10,0 -25,2 -36,20l0 -17 -14 0 0 139z"/>
  <path id="36" class="fil0" d="M3767 2395l0 -14 -108 0 73 -80c6,-7 15,-17 20,-24 9,-12 16,-27 16,-47 0,-37 -28,-65 -67,-65 -24,0 -40,10 -50,20 -10,11 -18,27 -18,48l15 0c0,-17 6,-30 13,-37 12,-14 27,-17 39,-17 31,0 53,22 53,51 0,16 -7,29 -13,39 -8,12 -17,22 -25,31l-87 96 140 0z"/>
  <path id="37" class="fil0" d="M3886 2166c-15,0 -35,5 -53,28 -18,21 -29,52 -29,89 0,37 11,68 29,89 16,19 36,28 53,28 17,0 37,-8 53,-28 18,-21 29,-52 29,-89 0,-37 -11,-68 -29,-89 -18,-22 -39,-28 -53,-28zm0 220c-8,0 -25,-2 -42,-23 -15,-18 -24,-44 -24,-80 0,-36 10,-62 24,-80 8,-10 22,-23 42,-23 20,0 34,13 42,23 15,18 24,44 24,80 0,36 -10,62 -24,80 -17,21 -34,23 -42,23z"/>
  <path id="38" class="fil0" d="M4077 2276c-6,-15 -20,-22 -36,-22 -21,0 -37,15 -37,36 0,8 3,14 6,18 7,9 19,13 35,20 17,7 26,13 26,28 0,18 -13,31 -31,31 -15,0 -30,-10 -35,-28l-13 4c6,23 25,37 48,37 21,0 45,-13 45,-44 0,-8 -1,-15 -7,-22 -9,-11 -22,-15 -33,-19 -15,-6 -27,-10 -27,-24 0,-10 8,-22 23,-22 10,0 19,5 24,16l12 -6z"/>
  <path class="fil0" d="M11052 193c0,-67 5,-155 60,-155 54,0 60,88 60,155 0,79 -6,157 -60,157 -54,0 -60,-78 -60,-157zm60 195c99,0 104,-109 104,-195 0,-76 -7,-193 -104,-193 -97,0 -104,119 -104,193 0,86 6,195 104,195z"/>
  <path id="1" class="fil0" d="M11432 174c0,-54 -32,-83 -85,-83 -49,0 -80,30 -80,79 0,45 25,63 69,82 29,12 64,19 64,55 0,34 -21,48 -54,48 -36,0 -48,-20 -48,-56l-38 0c0,61 23,90 88,90 60,0 94,-30 94,-84 0,-52 -42,-70 -83,-85 -30,-11 -51,-21 -51,-51 0,-25 12,-43 40,-43 32,0 45,16 45,49l39 0z"/>
  <path class="fil0" d="M79 502l-40 0 0 77 -39 0 0 34 39 0 0 202c0,43 17,46 42,46l44 0 0 -34 -27 0c-16,0 -18,-6 -18,-22l0 -192 46 0 0 -34 -46 0 0 -77z"/>
  <g>
   <path class="fil0" d="M4599 682l-102 -129 57 0 0 24 0 5 1 5 1 5 2 4 2 4 2 4 3 3 3 3 3 3 3 2 4 2 4 2 4 1 4 1 4 1 4 0 4 0 4 0 4 -1 4 -1 4 -1 4 -2 3 -2 3 -2 3 -3 3 -3 2 -3 2 -4 2 -4 1 -5 1 -5 0 -5 0 0 0 -25 59 0 0 30 -1 12 -2 12 -3 11 -4 10 -5 9 -5 8 -6 8 -7 7 -7 6 -8 5 -8 4 -9 4 -9 3 -9 2 -9 1 -10 1 -10 0 -9 -1 -9 -2 -9 -3 -9 -3 -8 -4 -8 -5 -7 -6 -7 -7 -6 -7 -5 -8 -5 -9 -4 -10 -3 -10 -2 -11 -1 -12 0 0 0 -35 102 129zm11 43l-21 0 0 -43 21 0 0 43zm0 107l-21 0 0 -43 21 0 0 43zm0 107l-21 0 0 -43 21 0 0 43zm0 107l-21 0 0 -43 21 0 0 43zm0 107l-21 0 0 -43 21 0 0 43zm0 107l-21 0 0 -43 21 0 0 43z"/>
  </g>
  <polygon class="fil0" points="4167,234 4167,269 4299,269 4299,234 "/>
  <path id="1" class="fil0" d="M4439 380l42 0 0 -380 -33 0c-6,59 -36,69 -90,69l0 34 81 0 0 277z"/>
  <path id="2" class="fil0" d="M4642 193c0,-67 5,-155 60,-155 54,0 60,88 60,155 0,79 -6,157 -60,157 -54,0 -60,-78 -60,-157zm60 195c99,0 104,-109 104,-195 0,-76 -7,-193 -104,-193 -97,0 -104,119 -104,193 0,86 6,195 104,195z"/>
  <path id="3" class="fil0" d="M4905 98l-40 0 0 282 40 0 0 -191c0,-44 29,-64 57,-64 33,0 43,20 43,49l0 207 40 0 0 -191c0,-44 27,-64 58,-64 34,0 42,21 42,53l0 203 40 0 0 -218c0,-51 -30,-72 -70,-72 -27,0 -55,14 -74,43 -10,-32 -36,-43 -66,-43 -34,0 -57,20 -70,39l-1 0 0 -31z"/>
  <path class="fil0" d="M4500 1315l0 189c0,33 2,55 17,77 23,33 58,41 86,41 27,0 63,-8 86,-41 15,-23 17,-44 17,-77l0 -189 -20 0 0 189c0,29 -1,47 -13,65 -18,29 -51,35 -70,35 -19,0 -53,-6 -70,-35 -11,-18 -13,-37 -13,-65l0 -189 -20 0z"/>
  <path id="1" class="fil0" d="M4876 1458c-9,-20 -27,-30 -48,-30 -28,0 -49,19 -49,48 0,11 4,19 8,24 9,12 25,18 46,27 22,9 35,17 35,38 0,24 -18,41 -41,41 -20,0 -40,-13 -46,-37l-18 5c8,31 33,49 64,49 29,0 60,-17 60,-59 0,-10 -2,-20 -10,-30 -12,-15 -29,-20 -44,-26 -20,-8 -36,-14 -36,-33 0,-14 10,-29 31,-29 13,0 26,6 32,21l15 -8z"/>
  <path id="2" class="fil0" d="M5099 1527c2,-59 -38,-99 -87,-99 -45,0 -90,33 -90,97 0,54 34,96 91,96 46,0 70,-29 81,-50l-15 -9c-12,24 -34,42 -64,42 -39,0 -76,-31 -73,-78l158 0zm-157 -17c5,-36 32,-64 69,-64 37,0 64,28 68,64l-138 0z"/>
  <path id="3" class="fil0" d="M5152 1617l18 0 0 -99c0,-23 0,-72 38,-72 8,0 12,2 14,4l9 -16c-7,-4 -14,-5 -19,-5 -20,0 -34,12 -41,28l0 -24 -18 0 0 185z"/>
  <path id="4" class="fil0" d="M5451 1617l0 -18 -144 0 97 -107c9,-10 20,-23 27,-33 12,-16 22,-36 22,-62 0,-49 -38,-86 -90,-86 -33,0 -54,13 -67,26 -14,14 -24,36 -24,63l20 0c0,-22 9,-39 18,-49 16,-18 36,-22 52,-22 42,0 70,30 70,68 0,21 -9,38 -18,52 -11,16 -23,29 -33,41l-116 128 186 0z"/>
  <polygon id="5" class="fil0" points="4489,1794 4489,2020 4504,2020 4504,1794 "/>
  <path id="6" class="fil0" d="M4610 1913c39,0 66,-22 66,-60 0,-39 -29,-59 -66,-59l-44 0 0 227 15 0 0 -108 29 0zm-29 -105l28 0c33,0 52,18 52,46 0,29 -20,46 -50,46l-30 0 0 -92z"/>
  <path id="7" class="fil0" d="M4708 1891c0,7 5,13 13,13 7,0 13,-5 13,-13 0,-7 -5,-13 -13,-13 -7,0 -13,5 -13,13zm0 119c0,7 5,13 13,13 7,0 13,-5 13,-13 0,-7 -5,-13 -13,-13 -7,0 -13,5 -13,13z"/>
  <polygon id="8" class="fil0" points="4926,2020 4941,2020 4941,1794 4898,1794 4891,1807 4926,1807 "/>
  <path id="9" class="fil0" d="M5104 2024l75 -107c4,-5 15,-22 15,-46 0,-47 -34,-80 -80,-80 -48,0 -81,35 -81,80 0,46 34,79 79,79 10,0 20,-2 31,-6l-50 72 12 9zm10 -220c37,0 65,29 65,66 0,38 -27,66 -65,66 -37,0 -65,-27 -65,-66 0,-37 28,-66 65,-66z"/>
  <path id="10" class="fil0" d="M5366 2020l0 -14 -108 0 73 -80c6,-7 15,-17 20,-24 9,-12 16,-27 16,-47 0,-37 -28,-65 -67,-65 -24,0 -40,10 -50,20 -10,11 -18,27 -18,48l15 0c0,-17 6,-30 13,-37 12,-14 27,-17 39,-17 31,0 53,22 53,51 0,16 -7,29 -13,39 -8,12 -17,22 -25,31l-87 96 140 0z"/>
  <path id="11" class="fil0" d="M5414 2010c0,7 5,13 13,13 7,0 13,-5 13,-13 0,-7 -5,-13 -13,-13 -7,0 -13,5 -13,13z"/>
  <polygon id="12" class="fil0" points="5553,2020 5568,2020 5568,1794 5525,1794 5518,1807 5553,1807 "/>
  <path id="13" class="fil0" d="M5749 1791l-75 107c-4,5 -15,22 -15,46 0,47 34,80 80,80 47,0 81,-35 81,-80 0,-46 -34,-79 -79,-79 -10,0 -20,2 -31,6l50 -71 -12 -9zm-10 220c-37,0 -65,-28 -65,-66 0,-38 27,-66 65,-66 37,0 65,27 65,66 0,37 -28,66 -65,66z"/>
  <path id="14" class="fil0" d="M5955 1903c31,-16 32,-46 32,-52 0,-34 -26,-60 -60,-60 -34,0 -60,25 -60,60 0,7 1,36 32,52 -24,9 -37,33 -37,57 0,39 30,64 66,64 36,0 66,-24 66,-64 0,-25 -13,-48 -37,-57l0 0zm-29 -6c-24,0 -45,-19 -45,-46 0,-27 20,-46 45,-46 25,0 44,19 44,46 0,27 -20,46 -44,46zm0 114c-31,0 -50,-22 -50,-50 0,-30 21,-51 50,-51 29,0 50,21 50,51 0,28 -19,50 -50,50z"/>
  <path id="15" class="fil0" d="M6041 2010c0,7 5,13 13,13 7,0 13,-5 13,-13 0,-7 -5,-13 -13,-13 -7,0 -13,5 -13,13z"/>
  <path id="16" class="fil0" d="M6181 1791c-15,0 -35,5 -53,28 -18,21 -29,52 -29,89 0,37 11,68 29,89 16,19 36,28 53,28 17,0 37,-8 53,-28 18,-21 29,-52 29,-89 0,-37 -11,-68 -29,-89 -18,-22 -39,-28 -53,-28zm0 220c-8,0 -25,-2 -42,-23 -15,-18 -24,-44 -24,-80 0,-36 10,-62 24,-80 8,-10 22,-23 42,-23 20,0 34,13 42,23 15,18 24,44 24,80 0,36 -10,62 -24,80 -17,21 -34,23 -42,23z"/>
  <path id="17" class="fil0" d="M6296 2010c0,7 5,13 13,13 7,0 13,-5 13,-13 0,-7 -5,-13 -13,-13 -7,0 -13,5 -13,13z"/>
  <path id="18" class="fil0" d="M6503 2020l0 -14 -108 0 73 -80c6,-7 15,-17 20,-24 9,-12 16,-27 16,-47 0,-37 -28,-65 -67,-65 -24,0 -40,10 -50,20 -10,11 -18,27 -18,48l15 0c0,-17 6,-30 13,-37 12,-14 27,-17 39,-17 31,0 53,22 53,51 0,16 -7,29 -13,39 -8,12 -17,22 -25,31l-87 96 140 0z"/>
  <polygon id="19" class="fil0" points="4489,2169 4489,2395 4567,2395 4567,2382 4504,2382 4504,2169 "/>
  <path id="20" class="fil0" d="M4721 2328c1,-44 -28,-74 -66,-74 -34,0 -67,25 -67,73 0,40 25,72 68,72 34,0 53,-22 61,-38l-12 -7c-9,18 -26,32 -48,32 -29,0 -57,-23 -55,-58l119 0zm-118 -13c4,-27 24,-48 52,-48 28,0 48,21 51,48l-103 0z"/>
  <path id="21" class="fil0" d="M4873 2281c-13,-19 -32,-27 -54,-27 -40,0 -68,30 -68,72 0,46 31,73 68,73 18,0 40,-7 54,-29l0 25 14 0 0 -139 -14 0 0 24zm-53 -14c24,0 54,17 54,58 0,32 -19,61 -54,61 -35,0 -54,-30 -54,-61 0,-38 26,-58 54,-58z"/>
  <path id="22" class="fil0" d="M5009 2276c-6,-15 -20,-22 -36,-22 -21,0 -37,15 -37,36 0,8 3,14 6,18 7,9 19,13 35,20 17,7 26,13 26,28 0,18 -13,31 -31,31 -15,0 -30,-10 -35,-28l-13 4c6,23 25,37 48,37 21,0 45,-13 45,-44 0,-8 -1,-15 -7,-22 -9,-11 -22,-15 -33,-19 -15,-6 -27,-10 -27,-24 0,-10 8,-22 23,-22 10,0 19,5 24,16l12 -6z"/>
  <path id="23" class="fil0" d="M5176 2328c1,-44 -28,-74 -66,-74 -34,0 -67,25 -67,73 0,40 25,72 68,72 34,0 53,-22 61,-38l-12 -7c-9,18 -26,32 -48,32 -29,0 -57,-23 -55,-58l119 0zm-118 -13c4,-27 24,-48 52,-48 28,0 48,21 51,48l-103 0z"/>
  <path id="24" class="fil0" d="M5267 2395c20,0 55,-3 84,-32 24,-24 33,-57 33,-82 0,-25 -8,-58 -33,-82 -29,-29 -64,-32 -84,-32l-45 0 0 227 45 0zm-30 -213l30 0c59,0 101,42 101,100 0,59 -41,100 -101,100l-30 0 0 -199z"/>
  <path id="25" class="fil0" d="M5426 2257l0 87c0,11 1,26 11,38 11,14 27,17 39,17 12,0 29,-3 39,-17 10,-12 11,-27 11,-38l0 -87 -14 0 0 84c0,10 0,24 -9,35 -8,10 -21,11 -28,11 -6,0 -19,-1 -28,-11 -8,-10 -9,-25 -9,-35l0 -84 -14 0z"/>
  <path id="26" class="fil0" d="M5575 2395l14 0 0 -74c0,-17 0,-54 28,-54 6,0 9,2 10,3l7 -12c-5,-3 -11,-3 -15,-3 -15,0 -25,9 -31,21l0 -18 -14 0 0 139z"/>
  <path id="27" class="fil0" d="M5776 2281c-13,-19 -32,-27 -54,-27 -40,0 -68,30 -68,72 0,46 31,73 68,73 18,0 40,-7 54,-29l0 25 14 0 0 -139 -14 0 0 24zm-53 -14c24,0 54,17 54,58 0,32 -19,61 -54,61 -35,0 -54,-30 -54,-61 0,-38 26,-58 54,-58z"/>
  <polygon id="28" class="fil0" points="5877,2270 5877,2257 5853,2257 5853,2207 5839,2207 5839,2257 5824,2257 5824,2270 5839,2270 5839,2395 5853,2395 5853,2270 "/>
  <path id="29" class="fil0" d="M5904 2257l0 139 14 0 0 -139 -14 0zm7 -34c7,0 12,-5 12,-13 0,-7 -5,-13 -12,-13 -7,0 -12,5 -12,13 0,7 5,13 12,13z"/>
  <path id="30" class="fil0" d="M6031 2254c-41,0 -73,32 -73,73 0,41 32,73 73,73 41,0 73,-32 73,-73 0,-41 -32,-73 -73,-73zm0 132c-33,0 -58,-26 -58,-60 0,-34 25,-60 58,-60 33,0 58,26 58,60 0,34 -25,60 -58,60z"/>
  <path id="31" class="fil0" d="M6143 2395l14 0 0 -72c0,-14 1,-26 7,-37 5,-9 15,-19 34,-19 17,0 24,8 27,14 5,8 5,18 5,28l0 87 14 0 0 -87c0,-12 -1,-25 -7,-35 -3,-5 -14,-19 -38,-19 -23,0 -36,13 -42,25l0 -22 -14 0 0 139z"/>
  <path id="32" class="fil0" d="M6291 2266c0,7 5,13 13,13 7,0 13,-5 13,-13 0,-7 -5,-13 -13,-13 -7,0 -13,5 -13,13zm0 119c0,7 5,13 13,13 7,0 13,-5 13,-13 0,-7 -5,-13 -13,-13 -7,0 -13,5 -13,13z"/>
  <polygon id="33" class="fil0" points="6509,2395 6524,2395 6524,2169 6481,2169 6474,2182 6509,2182 "/>
  <path id="34" class="fil0" d="M6696 2166c-15,0 -35,5 -53,28 -18,21 -29,52 -29,89 0,37 11,68 29,89 16,19 36,28 53,28 17,0 37,-8 53,-28 18,-21 29,-52 29,-89 0,-37 -11,-68 -29,-89 -18,-22 -39,-28 -53,-28zm0 220c-8,0 -25,-2 -42,-23 -15,-18 -24,-44 -24,-80 0,-36 10,-62 24,-80 8,-10 22,-23 42,-23 20,0 34,13 42,23 15,18 24,44 24,80 0,36 -10,62 -24,80 -17,21 -34,23 -42,23z"/>
  <path id="35" class="fil0" d="M6814 2395l14 0 0 -80c0,-28 11,-49 35,-49 30,0 31,31 31,40l0 89 14 0 0 -84c0,-8 0,-45 37,-45 6,0 15,1 21,8 7,8 8,19 8,29l0 92 14 0 0 -92c0,-11 -1,-26 -12,-38 -6,-6 -16,-12 -31,-12 -18,0 -33,8 -41,25 -3,-7 -12,-25 -39,-25 -10,0 -25,2 -36,20l0 -17 -14 0 0 139z"/>
  <path id="36" class="fil0" d="M7152 2161l-137 191 122 0 0 43 15 0 0 -43 32 0 0 -14 -32 0 0 -177zm-110 177l95 -133 0 133 -95 0z"/>
  <path id="37" class="fil0" d="M7290 2166c-15,0 -35,5 -53,28 -18,21 -29,52 -29,89 0,37 11,68 29,89 16,19 36,28 53,28 17,0 37,-8 53,-28 18,-21 29,-52 29,-89 0,-37 -11,-68 -29,-89 -18,-22 -39,-28 -53,-28zm0 220c-8,0 -25,-2 -42,-23 -15,-18 -24,-44 -24,-80 0,-36 10,-62 24,-80 8,-10 22,-23 42,-23 20,0 34,13 42,23 15,18 24,44 24,80 0,36 -10,62 -24,80 -17,21 -34,23 -42,23z"/>
  <path id="38" class="fil0" d="M7481 2276c-6,-15 -20,-22 -36,-22 -21,0 -37,15 -37,36 0,8 3,14 6,18 7,9 19,13 35,20 17,7 26,13 26,28 0,18 -13,31 -31,31 -15,0 -30,-10 -35,-28l-13 4c6,23 25,37 48,37 21,0 45,-13 45,-44 0,-8 -1,-15 -7,-22 -9,-11 -22,-15 -33,-19 -15,-6 -27,-10 -27,-24 0,-10 8,-22 23,-22 10,0 19,5 24,16l12 -6z"/>
  <g>
   <path class="fil0" d="M7894 682l-102 -129 57 0 0 24 0 5 1 5 1 5 2 4 2 4 2 4 3 3 3 3 3 3 3 2 4 2 4 2 4 1 4 1 4 1 4 0 4 0 4 0 4 -1 4 -1 4 -1 4 -2 3 -2 3 -2 3 -3 3 -3 2 -3 2 -4 2 -4 1 -5 1 -5 0 -5 0 0 0 -25 59 0 0 30 -1 12 -2 12 -3 11 -4 10 -5 9 -5 8 -6 8 -7 7 -7 6 -8 5 -8 4 -9 4 -9 3 -9 2 -9 1 -10 1 -10 0 -9 -1 -9 -2 -9 -3 -9 -3 -8 -4 -8 -5 -7 -6 -7 -7 -6 -7 -5 -8 -5 -9 -4 -10 -3 -10 -2 -11 -1 -12 0 0 0 -35 102 129zm11 43l-21 0 0 -43 21 0 0 43zm0 107l-21 0 0 -43 21 0 0 43zm0 107l-21 0 0 -43 21 0 0 43zm0 107l-21 0 0 -43 21 0 0 43zm0 107l-21 0 0 -43 21 0 0 43zm0 107l-21 0 0 -43 21 0 0 43z"/>
  </g>
  <polygon class="fil0" points="7462,234 7462,269 7594,269 7594,234 "/>
  <path id="1" class="fil0" d="M7638 7l0 38 175 0c-75,98 -124,214 -138,335l48 0c10,-121 52,-239 125,-338l0 -35 -209 0z"/>
  <path id="2" class="fil0" d="M7947 98l-40 0 0 282 40 0 0 -191c0,-44 29,-64 57,-64 33,0 43,20 43,49l0 207 40 0 0 -191c0,-44 27,-64 58,-64 34,0 42,21 42,53l0 203 40 0 0 -218c0,-51 -30,-72 -70,-72 -27,0 -55,14 -74,43 -10,-32 -36,-43 -66,-43 -34,0 -57,20 -70,39l-1 0 0 -31z"/>
  <path class="fil0" d="M7795 1315l0 189c0,33 2,55 17,77 23,33 58,41 86,41 27,0 63,-8 86,-41 15,-23 17,-44 17,-77l0 -189 -20 0 0 189c0,29 -1,47 -13,65 -18,29 -51,35 -70,35 -19,0 -53,-6 -70,-35 -11,-18 -13,-37 -13,-65l0 -189 -20 0z"/>
  <path id="1" class="fil0" d="M8171 1458c-9,-20 -27,-30 -48,-30 -28,0 -49,19 -49,48 0,11 4,19 8,24 9,12 25,18 46,27 22,9 35,17 35,38 0,24 -18,41 -41,41 -20,0 -40,-13 -46,-37l-18 5c8,31 33,49 64,49 29,0 60,-17 60,-59 0,-10 -2,-20 -10,-30 -12,-15 -29,-20 -44,-26 -20,-8 -36,-14 -36,-33 0,-14 10,-29 31,-29 13,0 26,6 32,21l15 -8z"/>
  <path id="2" class="fil0" d="M8394 1527c2,-59 -38,-99 -87,-99 -45,0 -90,33 -90,97 0,54 34,96 91,96 46,0 70,-29 81,-50l-15 -9c-12,24 -34,42 -64,42 -39,0 -76,-31 -73,-78l158 0zm-157 -17c5,-36 32,-64 69,-64 37,0 64,28 68,64l-138 0z"/>
  <path id="3" class="fil0" d="M8447 1617l18 0 0 -99c0,-23 0,-72 38,-72 8,0 12,2 14,4l9 -16c-7,-4 -14,-5 -19,-5 -20,0 -34,12 -41,28l0 -24 -18 0 0 185z"/>
  <path id="4" class="fil0" d="M8567 1544c0,16 5,29 11,39 15,26 45,39 72,39 49,0 89,-38 89,-89 0,-34 -19,-63 -52,-74 36,-14 48,-47 48,-73 0,-41 -29,-76 -79,-76 -16,0 -38,3 -56,22 -12,13 -22,32 -22,54l19 0c0,-15 6,-30 15,-40 14,-15 31,-18 43,-18 38,0 58,27 58,59 0,20 -9,38 -22,49 -3,3 -18,14 -41,14l0 18c14,-1 29,3 39,9 16,10 29,29 29,55 0,38 -31,70 -68,70 -20,0 -42,-12 -53,-28 -6,-9 -10,-20 -10,-32l-20 0z"/>
  <polygon id="5" class="fil0" points="7784,1794 7784,2020 7799,2020 7799,1794 "/>
  <path id="6" class="fil0" d="M7905 1913c39,0 66,-22 66,-60 0,-39 -29,-59 -66,-59l-44 0 0 227 15 0 0 -108 29 0zm-29 -105l28 0c33,0 52,18 52,46 0,29 -20,46 -50,46l-30 0 0 -92z"/>
  <path id="7" class="fil0" d="M8003 1891c0,7 5,13 13,13 7,0 13,-5 13,-13 0,-7 -5,-13 -13,-13 -7,0 -13,5 -13,13zm0 119c0,7 5,13 13,13 7,0 13,-5 13,-13 0,-7 -5,-13 -13,-13 -7,0 -13,5 -13,13z"/>
  <polygon id="8" class="fil0" points="8222,2020 8236,2020 8236,1794 8193,1794 8186,1807 8222,1807 "/>
  <path id="9" class="fil0" d="M8399 2024l75 -107c4,-5 15,-22 15,-46 0,-47 -34,-80 -80,-80 -48,0 -81,35 -81,80 0,46 34,79 79,79 10,0 20,-2 31,-6l-50 72 12 9zm10 -220c37,0 65,29 65,66 0,38 -27,66 -65,66 -37,0 -65,-27 -65,-66 0,-37 28,-66 65,-66z"/>
  <path id="10" class="fil0" d="M8661 2020l0 -14 -108 0 73 -80c6,-7 15,-17 20,-24 9,-12 16,-27 16,-47 0,-37 -28,-65 -67,-65 -24,0 -40,10 -50,20 -10,11 -18,27 -18,48l15 0c0,-17 6,-30 13,-37 12,-14 27,-17 39,-17 31,0 53,22 53,51 0,16 -7,29 -13,39 -8,12 -17,22 -25,31l-87 96 140 0z"/>
  <path id="11" class="fil0" d="M8709 2010c0,7 5,13 13,13 7,0 13,-5 13,-13 0,-7 -5,-13 -13,-13 -7,0 -13,5 -13,13z"/>
  <polygon id="12" class="fil0" points="8848,2020 8863,2020 8863,1794 8820,1794 8813,1807 8848,1807 "/>
  <path id="13" class="fil0" d="M9044 1791l-75 107c-4,5 -15,22 -15,46 0,47 34,80 80,80 47,0 81,-35 81,-80 0,-46 -34,-79 -79,-79 -10,0 -20,2 -31,6l50 -71 -12 -9zm-10 220c-37,0 -65,-28 -65,-66 0,-38 27,-66 65,-66 37,0 65,27 65,66 0,37 -28,66 -65,66z"/>
  <path id="14" class="fil0" d="M9250 1903c31,-16 32,-46 32,-52 0,-34 -26,-60 -60,-60 -34,0 -60,25 -60,60 0,7 1,36 32,52 -24,9 -37,33 -37,57 0,39 30,64 66,64 36,0 66,-24 66,-64 0,-25 -13,-48 -37,-57l0 0zm-29 -6c-24,0 -45,-19 -45,-46 0,-27 20,-46 45,-46 25,0 44,19 44,46 0,27 -20,46 -44,46zm0 114c-31,0 -50,-22 -50,-50 0,-30 21,-51 50,-51 29,0 50,21 50,51 0,28 -19,50 -50,50z"/>
  <path id="15" class="fil0" d="M9336 2010c0,7 5,13 13,13 7,0 13,-5 13,-13 0,-7 -5,-13 -13,-13 -7,0 -13,5 -13,13z"/>
  <path id="16" class="fil0" d="M9476 1791c-15,0 -35,5 -53,28 -18,21 -29,52 -29,89 0,37 11,68 29,89 16,19 36,28 53,28 17,0 37,-8 53,-28 18,-21 29,-52 29,-89 0,-37 -11,-68 -29,-89 -18,-22 -39,-28 -53,-28zm0 220c-8,0 -25,-2 -42,-23 -15,-18 -24,-44 -24,-80 0,-36 10,-62 24,-80 8,-10 22,-23 42,-23 20,0 34,13 42,23 15,18 24,44 24,80 0,36 -10,62 -24,80 -17,21 -34,23 -42,23z"/>
  <path id="17" class="fil0" d="M9591 2010c0,7 5,13 13,13 7,0 13,-5 13,-13 0,-7 -5,-13 -13,-13 -7,0 -13,5 -13,13z"/>
  <path id="18" class="fil0" d="M9664 1965c0,12 4,22 8,29 12,19 34,30 54,30 37,0 67,-29 67,-67 0,-26 -14,-48 -39,-55 27,-11 36,-35 36,-55 0,-31 -22,-57 -59,-57 -12,0 -28,2 -42,16 -9,10 -16,24 -17,41l14 0c0,-11 4,-22 12,-30 10,-12 23,-13 33,-13 28,0 43,20 43,44 0,15 -7,29 -17,37 -2,2 -13,11 -31,11l0 14c11,-1 21,2 29,7 12,7 21,22 21,41 0,28 -23,53 -51,53 -15,0 -32,-9 -40,-21 -4,-7 -7,-15 -7,-24l-15 0z"/>
  <polygon id="19" class="fil0" points="7784,2169 7784,2395 7862,2395 7862,2382 7799,2382 7799,2169 "/>
  <path id="20" class="fil0" d="M8016 2328c1,-44 -28,-74 -66,-74 -34,0 -67,25 -67,73 0,40 25,72 68,72 34,0 53,-22 61,-38l-12 -7c-9,18 -26,32 -48,32 -29,0 -57,-23 -55,-58l119 0zm-118 -13c4,-27 24,-48 52,-48 28,0 48,21 51,48l-103 0z"/>
  <path id="21" class="fil0" d="M8169 2281c-13,-19 -32,-27 -54,-27 -40,0 -68,30 -68,72 0,46 31,73 68,73 18,0 40,-7 54,-29l0 25 14 0 0 -139 -14 0 0 24zm-53 -14c24,0 54,17 54,58 0,32 -19,61 -54,61 -35,0 -54,-30 -54,-61 0,-38 26,-58 54,-58z"/>
  <path id="22" class="fil0" d="M8304 2276c-6,-15 -20,-22 -36,-22 -21,0 -37,15 -37,36 0,8 3,14 6,18 7,9 19,13 35,20 17,7 26,13 26,28 0,18 -13,31 -31,31 -15,0 -30,-10 -35,-28l-13 4c6,23 25,37 48,37 21,0 45,-13 45,-44 0,-8 -1,-15 -7,-22 -9,-11 -22,-15 -33,-19 -15,-6 -27,-10 -27,-24 0,-10 8,-22 23,-22 10,0 19,5 24,16l12 -6z"/>
  <path id="23" class="fil0" d="M8471 2328c1,-44 -28,-74 -66,-74 -34,0 -67,25 -67,73 0,40 25,72 68,72 34,0 53,-22 61,-38l-12 -7c-9,18 -26,32 -48,32 -29,0 -57,-23 -55,-58l119 0zm-118 -13c4,-27 24,-48 52,-48 28,0 48,21 51,48l-103 0z"/>
  <path id="24" class="fil0" d="M8562 2395c20,0 55,-3 84,-32 24,-24 33,-57 33,-82 0,-25 -8,-58 -33,-82 -29,-29 -64,-32 -84,-32l-45 0 0 227 45 0zm-30 -213l30 0c59,0 101,42 101,100 0,59 -41,100 -101,100l-30 0 0 -199z"/>
  <path id="25" class="fil0" d="M8721 2257l0 87c0,11 1,26 11,38 11,14 27,17 39,17 12,0 29,-3 39,-17 10,-12 11,-27 11,-38l0 -87 -14 0 0 84c0,10 0,24 -9,35 -8,10 -21,11 -28,11 -6,0 -19,-1 -28,-11 -8,-10 -9,-25 -9,-35l0 -84 -14 0z"/>
  <path id="26" class="fil0" d="M8870 2395l14 0 0 -74c0,-17 0,-54 28,-54 6,0 9,2 10,3l7 -12c-5,-3 -11,-3 -15,-3 -15,0 -25,9 -31,21l0 -18 -14 0 0 139z"/>
  <path id="27" class="fil0" d="M9071 2281c-13,-19 -32,-27 -54,-27 -40,0 -68,30 -68,72 0,46 31,73 68,73 18,0 40,-7 54,-29l0 25 14 0 0 -139 -14 0 0 24zm-53 -14c24,0 54,17 54,58 0,32 -19,61 -54,61 -35,0 -54,-30 -54,-61 0,-38 26,-58 54,-58z"/>
  <polygon id="28" class="fil0" points="9172,2270 9172,2257 9148,2257 9148,2207 9134,2207 9134,2257 9119,2257 9119,2270 9134,2270 9134,2395 9148,2395 9148,2270 "/>
  <path id="29" class="fil0" d="M9199 2257l0 139 14 0 0 -139 -14 0zm7 -34c7,0 12,-5 12,-13 0,-7 -5,-13 -12,-13 -7,0 -12,5 -12,13 0,7 5,13 12,13z"/>
  <path id="30" class="fil0" d="M9326 2254c-41,0 -73,32 -73,73 0,41 32,73 73,73 41,0 73,-32 73,-73 0,-41 -32,-73 -73,-73zm0 132c-33,0 -58,-26 -58,-60 0,-34 25,-60 58,-60 33,0 58,26 58,60 0,34 -25,60 -58,60z"/>
  <path id="31" class="fil0" d="M9438 2395l14 0 0 -72c0,-14 1,-26 7,-37 5,-9 15,-19 34,-19 17,0 24,8 27,14 5,8 5,18 5,28l0 87 14 0 0 -87c0,-12 -1,-25 -7,-35 -3,-5 -14,-19 -38,-19 -23,0 -36,13 -42,25l0 -22 -14 0 0 139z"/>
  <path id="32" class="fil0" d="M9586 2266c0,7 5,13 13,13 7,0 13,-5 13,-13 0,-7 -5,-13 -13,-13 -7,0 -13,5 -13,13zm0 119c0,7 5,13 13,13 7,0 13,-5 13,-13 0,-7 -5,-13 -13,-13 -7,0 -13,5 -13,13z"/>
  <polygon id="33" class="fil0" points="9719,2391 9731,2399 9893,2169 9729,2169 9729,2182 9866,2182 "/>
  <path id="34" class="fil0" d="M9922 2395l14 0 0 -80c0,-28 11,-49 35,-49 30,0 31,31 31,40l0 89 14 0 0 -84c0,-8 0,-45 37,-45 6,0 15,1 21,8 7,8 8,19 8,29l0 92 14 0 0 -92c0,-11 -1,-26 -12,-38 -6,-6 -16,-12 -31,-12 -18,0 -33,8 -41,25 -3,-7 -12,-25 -39,-25 -10,0 -25,2 -36,20l0 -17 -14 0 0 139z"/>
  <path id="35" class="fil0" d="M10222 2166l-75 107c-4,5 -15,22 -15,46 0,47 34,80 80,80 47,0 81,-35 81,-80 0,-46 -34,-79 -79,-79 -10,0 -20,2 -31,6l50 -71 -12 -9zm-10 220c-37,0 -65,-28 -65,-66 0,-38 27,-66 65,-66 37,0 65,27 65,66 0,37 -28,66 -65,66z"/>
  <path id="36" class="fil0" d="M10399 2166c-15,0 -35,5 -53,28 -18,21 -29,52 -29,89 0,37 11,68 29,89 16,19 36,28 53,28 17,0 37,-8 53,-28 18,-21 29,-52 29,-89 0,-37 -11,-68 -29,-89 -18,-22 -39,-28 -53,-28zm0 220c-8,0 -25,-2 -42,-23 -15,-18 -24,-44 -24,-80 0,-36 10,-62 24,-80 8,-10 22,-23 42,-23 20,0 34,13 42,23 15,18 24,44 24,80 0,36 -10,62 -24,80 -17,21 -34,23 -42,23z"/>
  <path id="37" class="fil0" d="M10590 2276c-6,-15 -20,-22 -36,-22 -21,0 -37,15 -37,36 0,8 3,14 6,18 7,9 19,13 35,20 17,7 26,13 26,28 0,18 -13,31 -31,31 -15,0 -30,-10 -35,-28l-13 4c6,23 25,37 48,37 21,0 45,-13 45,-44 0,-8 -1,-15 -7,-22 -9,-11 -22,-15 -33,-19 -15,-6 -27,-10 -27,-24 0,-10 8,-22 23,-22 10,0 19,5 24,16l12 -6z"/>
  <g>
   <path class="fil0" d="M16285 682l0 6 0 6 -1 6 -1 6 -1 5 -2 5 -2 5 -2 5 -2 5 -2 5 -3 5 -3 5 -3 4 -3 4 -4 4 -4 4 -4 4 -4 4 -4 3 -4 3 -5 3 -5 3 -5 2 -5 2 -5 2 -5 2 -5 2 -5 1 -6 1 -6 1 -6 0 -6 0 0 0 -6 0 -6 0 -6 -1 -6 -1 -5 -1 -5 -2 -5 -2 -5 -2 -5 -2 -5 -2 -5 -3 -5 -3 -4 -3 -4 -3 -4 -4 -4 -4 -4 -4 -4 -4 -3 -4 -3 -4 -3 -5 -3 -5 -2 -5 -2 -5 -2 -5 -2 -5 -2 -5 -1 -5 -1 -6 -1 -6 0 -6 0 -6 0 0 0 -6 0 -6 1 -6 1 -6 1 -5 2 -5 2 -5 2 -5 2 -5 2 -5 3 -5 3 -5 3 -4 3 -4 4 -4 4 -4 4 -4 4 -4 4 -3 4 -3 5 -3 5 -3 5 -2 5 -2 5 -2 5 -2 5 -2 5 -1 6 -1 6 -1 6 0 6 0 0 0 6 0 6 0 6 1 6 1 5 1 5 2 5 2 5 2 5 2 5 2 5 3 5 3 4 3 4 3 4 4 4 4 4 4 4 4 3 4 3 4 3 5 3 5 2 5 2 5 2 5 2 5 2 5 1 5 1 6 1 6 0 6 0 6 0 0zm-102 43l-21 0 0 -43 21 0 0 43zm0 107l-21 0 0 -43 21 0 0 43zm0 107l-21 0 0 -43 21 0 0 43zm0 107l-21 0 0 -43 21 0 0 43zm0 107l-21 0 0 -43 21 0 0 43zm0 107l-21 0 0 -43 21 0 0 43zm0 107l-21 0 0 -43 21 0 0 43zm0 107l-21 0 0 -43 21 0 0 43zm0 107l-21 0 0 -43 21 0 0 43zm-54 74l0 -21 43 0 0 21 -43 0zm-107 0l0 -21 43 0 0 21 -43 0zm-107 0l0 -21 43 0 0 21 -43 0zm-107 0l0 -21 43 0 0 21 -43 0zm-107 0l0 -21 43 0 0 21 -43 0zm-107 0l0 -21 43 0 0 21 -43 0zm-107 0l0 -21 43 0 0 21 -43 0zm-107 0l0 -21 43 0 0 21 -43 0zm-107 0l0 -21 43 0 0 21 -43 0zm-107 0l0 -21 43 0 0 21 -43 0zm-107 0l0 -21 43 0 0 21 -43 0zm-107 0l0 -21 43 0 0 21 -43 0zm-107 0l0 -21 43 0 0 21 -43 0zm-107 0l0 -21 43 0 0 21 -43 0zm-107 0l0 -21 43 0 0 21 -43 0zm-107 0l0 -21 43 0 0 21 -43 0zm-107 0l0 -21 43 0 0 21 -43 0zm-107 0l0 -21 43 0 0 21 -43 0zm-107 0l0 -21 43 0 0 21 -43 0zm-107 0l0 -21 43 0 0 21 -43 0zm-107 0l0 -21 43 0 0 21 -43 0zm-107 0l0 -21 43 0 0 21 -43 0zm-107 0l0 -21 43 0 0 21 -43 0zm-107 0l0 -21 43 0 0 21 -43 0zm-107 0l0 -21 43 0 0 21 -43 0zm-107 0l0 -21 43 0 0 21 -43 0zm-107 0l0 -21 43 0 0 21 -43 0zm-107 0l0 -21 43 0 0 21 -43 0zm-107 0l0 -21 43 0 0 21 -43 0zm-107 0l0 -21 43 0 0 21 -43 0zm-107 0l0 -21 43 0 0 21 -43 0zm-107 0l0 -21 43 0 0 21 -43 0zm-107 0l0 -21 43 0 0 21 -43 0zm-107 0l0 -21 43 0 0 21 -43 0zm-107 0l0 -21 43 0 0 21 -43 0zm-107 0l0 -21 43 0 0 21 -43 0zm-107 0l0 -21 43 0 0 21 -43 0zm-107 0l0 -21 43 0 0 21 -43 0zm-107 0l0 -21 43 0 0 21 -43 0zm-107 0l0 -21 43 0 0 21 -43 0zm-107 0l0 -21 43 0 0 21 -43 0zm-107 0l0 -21 43 0 0 21 -43 0zm-107 0l0 -21 43 0 0 21 -43 0zm-107 0l0 -21 43 0 0 21 -43 0zm-107 0l0 -21 43 0 0 21 -43 0zm-107 0l0 -21 43 0 0 21 -43 0zm-107 0l0 -21 43 0 0 21 -43 0zm-102 -21l38 0 0 21 -38 0 0 -21z"/>
  </g>
  <polygon class="fil0" points="15788,124 15788,234 15701,234 15701,269 15788,269 15788,380 15824,380 15824,269 15911,269 15911,234 15824,234 15824,124 "/>
  <path id="1" class="fil0" d="M16060 177c49,0 61,39 61,81 0,39 -8,92 -58,92 -38,0 -62,-24 -62,-97 0,-35 9,-77 59,-77zm4 211c58,0 101,-52 101,-133 0,-61 -30,-116 -98,-116 -27,0 -55,14 -70,47l-1 0c2,-42 12,-148 64,-148 32,0 51,13 53,53l42 0c0,-53 -38,-91 -88,-91 -109,0 -112,133 -112,212 0,78 7,176 109,176l0 0z"/>
  <path id="2" class="fil0" d="M16254 193c0,-67 5,-155 60,-155 54,0 60,88 60,155 0,79 -6,157 -60,157 -54,0 -60,-78 -60,-157zm60 195c99,0 104,-109 104,-195 0,-76 -7,-193 -104,-193 -97,0 -104,119 -104,193 0,86 6,195 104,195z"/>
  <path id="3" class="fil0" d="M16634 174c0,-54 -32,-83 -85,-83 -49,0 -80,30 -80,79 0,45 25,63 69,82 29,12 64,19 64,55 0,34 -21,48 -54,48 -36,0 -48,-20 -48,-56l-38 0c0,61 23,90 88,90 60,0 94,-30 94,-84 0,-52 -42,-70 -83,-85 -30,-11 -51,-21 -51,-51 0,-25 12,-43 40,-43 32,0 45,16 45,49l39 0z"/>
  <g>
   <path class="fil0" d="M12580 682l-102 -129 57 0 0 24 0 5 1 5 1 5 2 4 2 4 2 4 3 3 3 3 3 3 3 2 4 2 4 2 4 1 4 1 4 1 4 0 4 0 4 0 4 -1 4 -1 4 -1 4 -2 3 -2 3 -2 3 -3 3 -3 2 -3 2 -4 2 -4 1 -5 1 -5 0 -5 0 0 0 -25 59 0 0 30 -1 12 -2 12 -3 11 -4 10 -5 9 -5 8 -6 8 -7 7 -7 6 -8 5 -8 4 -9 4 -9 3 -9 2 -9 1 -10 1 -10 0 -9 -1 -9 -2 -9 -3 -9 -3 -8 -4 -8 -5 -7 -6 -7 -7 -6 -7 -5 -8 -5 -9 -4 -10 -3 -10 -2 -11 -1 -12 0 0 0 -35 102 129zm11 43l-21 0 0 -43 21 0 0 43zm0 107l-21 0 0 -43 21 0 0 43zm0 107l-21 0 0 -43 21 0 0 43z"/>
  </g>
  <polygon class="fil0" points="12278,181 12278,267 12210,267 12210,295 12278,295 12278,382 12306,382 12306,295 12375,295 12375,267 12306,267 12306,181 "/>
  <path id="1" class="fil0" d="M12445 185c0,-40 5,-72 44,-72 34,0 44,22 44,53 0,37 -24,64 -49,84 -65,54 -75,79 -75,132l161 0 0 -30 -125 0c4,-29 10,-35 69,-88 30,-27 54,-53 54,-98 0,-50 -26,-83 -77,-83 -54,0 -78,39 -78,88l0 14 33 0z"/>
  <path id="2" class="fil0" d="M12644 235c0,-53 4,-122 47,-122 42,0 47,69 47,122 0,62 -5,123 -47,123 -43,0 -47,-61 -47,-123zm47 153c78,0 82,-86 82,-153 0,-59 -5,-152 -82,-152 -76,0 -81,93 -81,152 0,68 5,153 81,153z"/>
  <path id="3" class="fil0" d="M12943 220c0,-42 -25,-65 -67,-65 -38,0 -63,24 -63,62 0,35 20,50 54,64 23,10 51,15 51,43 0,27 -17,37 -42,37 -29,0 -37,-15 -37,-44l-30 0c0,48 18,71 69,71 47,0 73,-24 73,-66 0,-41 -33,-55 -66,-66 -24,-8 -40,-16 -40,-40 0,-20 9,-34 32,-34 25,0 35,12 35,39l31 0z"/>
  <path class="fil0" d="M12480 1080l0 189c0,33 2,55 17,77 23,33 58,41 86,41 27,0 63,-8 86,-41 15,-23 17,-44 17,-77l0 -189 -20 0 0 189c0,29 -1,47 -13,65 -18,29 -51,35 -70,35 -19,0 -53,-6 -70,-35 -11,-18 -13,-37 -13,-65l0 -189 -20 0z"/>
  <path id="1" class="fil0" d="M12857 1223c-9,-20 -27,-30 -48,-30 -28,0 -49,19 -49,48 0,11 4,19 8,24 9,12 25,18 46,27 22,9 35,17 35,38 0,24 -18,41 -41,41 -20,0 -40,-13 -46,-37l-18 5c8,31 33,49 64,49 29,0 60,-17 60,-59 0,-10 -2,-20 -10,-30 -12,-15 -29,-20 -44,-26 -20,-8 -36,-14 -36,-33 0,-14 10,-29 31,-29 13,0 26,6 32,21l15 -8z"/>
  <path id="2" class="fil0" d="M13079 1292c2,-59 -38,-99 -87,-99 -45,0 -90,33 -90,97 0,54 34,96 91,96 46,0 70,-29 81,-50l-15 -9c-12,24 -34,42 -64,42 -39,0 -76,-31 -73,-78l158 0zm-157 -17c5,-36 32,-64 69,-64 37,0 64,28 68,64l-138 0z"/>
  <path id="3" class="fil0" d="M13133 1382l18 0 0 -99c0,-23 0,-72 38,-72 8,0 12,2 14,4l9 -16c-7,-4 -14,-5 -19,-5 -20,0 -34,12 -41,28l0 -24 -18 0 0 185z"/>
  <polygon id="4" class="fil0" points="13341,1382 13361,1382 13361,1080 13303,1080 13294,1098 13341,1098 "/>
  <g>
   <path class="fil0" d="M14338 682l-102 -129 57 0 0 24 0 5 1 5 1 5 2 4 2 4 2 4 3 3 3 3 3 3 3 2 4 2 4 2 4 1 4 1 4 1 4 0 4 0 4 0 4 -1 4 -1 4 -1 4 -2 3 -2 3 -2 3 -3 3 -3 2 -3 2 -4 2 -4 1 -5 1 -5 0 -5 0 0 0 -25 59 0 0 30 -1 12 -2 12 -3 11 -4 10 -5 9 -5 8 -6 8 -7 7 -7 6 -8 5 -8 4 -9 4 -9 3 -9 2 -9 1 -10 1 -10 0 -9 -1 -9 -2 -9 -3 -9 -3 -8 -4 -8 -5 -7 -6 -7 -7 -6 -7 -5 -8 -5 -9 -4 -10 -3 -10 -2 -11 -1 -12 0 0 0 -35 102 129zm11 43l-21 0 0 -43 21 0 0 43zm0 107l-21 0 0 -43 21 0 0 43zm0 107l-21 0 0 -43 21 0 0 43z"/>
  </g>
  <polygon class="fil0" points="14036,181 14036,267 13968,267 13968,295 14036,295 14036,382 14064,382 14064,295 14133,295 14133,267 14064,267 14064,181 "/>
  <path id="1" class="fil0" d="M14270 135l0 142 -83 0 83 -142zm-109 142l0 30 109 0 0 75 33 0 0 -75 27 0 0 -30 -27 0 0 -194 -31 0 -112 194z"/>
  <path id="2" class="fil0" d="M14402 235c0,-53 4,-122 47,-122 42,0 47,69 47,122 0,62 -5,123 -47,123 -43,0 -47,-61 -47,-123zm47 153c78,0 82,-86 82,-153 0,-59 -5,-152 -82,-152 -76,0 -81,93 -81,152 0,68 5,153 81,153z"/>
  <path id="3" class="fil0" d="M14701 220c0,-42 -25,-65 -67,-65 -38,0 -63,24 -63,62 0,35 20,50 54,64 23,10 51,15 51,43 0,27 -17,37 -42,37 -29,0 -37,-15 -37,-44l-30 0c0,48 18,71 69,71 47,0 73,-24 73,-66 0,-41 -33,-55 -66,-66 -24,-8 -40,-16 -40,-40 0,-20 9,-34 32,-34 25,0 35,12 35,39l31 0z"/>
  <path class="fil0" d="M14238 1080l0 189c0,33 2,55 17,77 23,33 58,41 86,41 27,0 63,-8 86,-41 15,-23 17,-44 17,-77l0 -189 -20 0 0 189c0,29 -1,47 -13,65 -18,29 -51,35 -70,35 -19,0 -53,-6 -70,-35 -11,-18 -13,-37 -13,-65l0 -189 -20 0z"/>
  <path id="1" class="fil0" d="M14615 1223c-9,-20 -27,-30 -48,-30 -28,0 -49,19 -49,48 0,11 4,19 8,24 9,12 25,18 46,27 22,9 35,17 35,38 0,24 -18,41 -41,41 -20,0 -40,-13 -46,-37l-18 5c8,31 33,49 64,49 29,0 60,-17 60,-59 0,-10 -2,-20 -10,-30 -12,-15 -29,-20 -44,-26 -20,-8 -36,-14 -36,-33 0,-14 10,-29 31,-29 13,0 26,6 32,21l15 -8z"/>
  <path id="2" class="fil0" d="M14838 1292c2,-59 -38,-99 -87,-99 -45,0 -90,33 -90,97 0,54 34,96 91,96 46,0 70,-29 81,-50l-15 -9c-12,24 -34,42 -64,42 -39,0 -76,-31 -73,-78l158 0zm-157 -17c5,-36 32,-64 69,-64 37,0 64,28 68,64l-138 0z"/>
  <path id="3" class="fil0" d="M14891 1382l18 0 0 -99c0,-23 0,-72 38,-72 8,0 12,2 14,4l9 -16c-7,-4 -14,-5 -19,-5 -20,0 -34,12 -41,28l0 -24 -18 0 0 185z"/>
  <path id="4" class="fil0" d="M15189 1382l0 -18 -144 0 97 -107c9,-10 20,-23 27,-33 12,-16 22,-36 22,-62 0,-49 -38,-86 -90,-86 -33,0 -54,13 -67,26 -14,14 -24,36 -24,63l20 0c0,-22 9,-39 18,-49 16,-18 36,-22 52,-22 42,0 70,30 70,68 0,21 -9,38 -18,52 -11,16 -23,29 -33,41l-116 128 186 0z"/>
  <line class="fil1 str0" x1="16173" y1="682" x2="16485" y2= "993" />
  <path class="fil0" d="M16433 1084l0 189c0,33 2,55 17,77 23,33 58,41 86,41 27,0 63,-8 86,-41 15,-23 17,-44 17,-77l0 -189 -20 0 0 189c0,29 -1,47 -13,65 -18,29 -51,35 -70,35 -19,0 -53,-6 -70,-35 -11,-18 -13,-37 -13,-65l0 -189 -20 0z"/>
  <path id="1" class="fil0" d="M16810 1227c-9,-20 -27,-30 -48,-30 -28,0 -49,19 -49,48 0,11 4,19 8,24 9,12 25,18 46,27 22,9 35,17 35,38 0,24 -18,41 -41,41 -20,0 -40,-13 -46,-37l-18 5c8,31 33,49 64,49 29,0 60,-17 60,-59 0,-10 -2,-20 -10,-30 -12,-15 -29,-20 -44,-26 -20,-8 -36,-14 -36,-33 0,-14 10,-29 31,-29 13,0 26,6 32,21l15 -8z"/>
  <path id="2" class="fil0" d="M17032 1296c2,-59 -38,-99 -87,-99 -45,0 -90,33 -90,97 0,54 34,96 91,96 46,0 70,-29 81,-50l-15 -9c-12,24 -34,42 -64,42 -39,0 -76,-31 -73,-78l158 0zm-157 -17c5,-36 32,-64 69,-64 37,0 64,28 68,64l-138 0z"/>
  <path id="3" class="fil0" d="M17085 1386l18 0 0 -99c0,-23 0,-72 38,-72 8,0 12,2 14,4l9 -16c-7,-4 -14,-5 -19,-5 -20,0 -34,12 -41,28l0 -24 -18 0 0 185z"/>
  <path id="4" class="fil0" d="M17205 1312c0,16 5,29 11,39 15,26 45,39 72,39 49,0 89,-38 89,-89 0,-34 -19,-63 -52,-74 36,-14 48,-47 48,-73 0,-41 -29,-76 -79,-76 -16,0 -38,3 -56,22 -12,13 -22,32 -22,54l19 0c0,-15 6,-30 15,-40 14,-15 31,-18 43,-18 38,0 58,27 58,59 0,20 -9,38 -22,49 -3,3 -18,14 -41,14l0 18c14,-1 29,3 39,9 16,10 29,29 29,55 0,38 -31,70 -68,70 -20,0 -42,-12 -53,-28 -6,-9 -10,-20 -10,-32l-20 0z"/>
 </g>
</svg>
