<?xml version="1.0" encoding="UTF-8"?>
<!DOCTYPE svg PUBLIC "-//W3C//DTD SVG 1.1//EN" "http://www.w3.org/Graphics/SVG/1.1/DTD/svg11.dtd">
<svg xmlns="http://www.w3.org/2000/svg" xml:space="preserve" width="166.771mm" height="34.1924mm" version="1.1" style="shape-rendering:geometricPrecision; text-rendering:geometricPrecision; image-rendering:optimizeQuality; fill-rule:evenodd; clip-rule:evenodd" viewBox="0 0 15679 3215" xmlns:xlink="http://www.w3.org/1999/xlink">
 <defs>
  <style type="text/css">
   <![CDATA[
    .str0 {stroke:black;stroke-width:18.803;stroke-dasharray:18.802963 18.802963}
    .fil1 {fill:none}
    .fil0 {fill:black;fill-rule:nonzero}
   ]]>
  </style>
 </defs>
 <g>
  <g>
   <path class="fil0" d="M1165 1588l-17 0 0 -284 33 0 0 284 -17 0zm14320 -130l-14320 0 0 -24 14320 0 0 24zm194 -12l-205 102 0 -205 205 102z"/>
  </g>
  <path class="fil0" d="M3639 3201l21 0 0 -116c0,-27 1,-85 44,-85 10,0 14,3 16,4l11 -19c-8,-4 -17,-5 -23,-5 -23,0 -40,14 -48,33l0 -28 -21 0 0 217z"/>
  <path id="1" class="fil0" d="M3970 3096c2,-69 -44,-116 -102,-116 -53,0 -105,39 -105,114 0,63 39,113 107,113 54,0 82,-34 95,-59l-18 -11c-14,29 -40,49 -75,49 -46,0 -89,-36 -86,-91l185 0zm-184 -20c6,-42 37,-75 81,-75 43,0 75,32 80,75l-161 0z"/>
  <path id="2" class="fil0" d="M4033 3201l21 0 0 -112c0,-21 2,-41 12,-58 8,-14 23,-30 53,-30 26,0 38,13 42,21 8,12 8,29 8,44l0 136 21 0 0 -136c0,-19 -1,-39 -11,-55 -5,-7 -21,-30 -60,-30 -37,0 -56,21 -66,39l0 -34 -21 0 0 217z"/>
  <path id="3" class="fil0" d="M4461 3096c2,-69 -44,-116 -102,-116 -53,0 -105,39 -105,114 0,63 39,113 107,113 54,0 82,-34 95,-59l-18 -11c-14,29 -40,49 -75,49 -46,0 -89,-36 -86,-91l185 0zm-184 -20c6,-42 37,-75 81,-75 43,0 75,32 80,75l-161 0z"/>
  <polygon id="4" class="fil0" points="4490,2985 4588,3215 4663,3022 4738,3215 4838,2985 4815,2985 4738,3164 4663,2972 4588,3164 4513,2985 "/>
  <polygon id="5" class="fil0" points="5004,2814 5004,3201 5025,3201 5025,2814 "/>
  <path id="6" class="fil0" d="M5295 3096c2,-69 -44,-116 -102,-116 -53,0 -105,39 -105,114 0,63 39,113 107,113 54,0 82,-34 95,-59l-18 -11c-14,29 -40,49 -75,49 -46,0 -89,-36 -86,-91l185 0zm-184 -20c6,-42 37,-75 81,-75 43,0 75,32 80,75l-161 0z"/>
  <path id="7" class="fil0" d="M5534 3022c-21,-29 -50,-42 -84,-42 -63,0 -106,46 -106,113 0,71 49,114 106,114 28,0 63,-11 84,-45l0 39 21 0 0 -217 -21 0 0 38zm-83 -22c37,0 84,27 84,91 0,50 -30,96 -84,96 -55,0 -85,-47 -85,-96 0,-59 41,-91 84,-91z"/>
  <path id="8" class="fil0" d="M5746 3015c-10,-23 -31,-35 -57,-35 -33,0 -58,23 -58,56 0,13 5,22 10,28 11,14 29,21 54,31 26,11 41,20 41,44 0,28 -21,48 -48,48 -24,0 -47,-15 -54,-44l-21 6c9,36 39,57 75,57 33,0 71,-20 71,-69 0,-12 -2,-24 -11,-35 -14,-18 -34,-23 -51,-30 -23,-10 -42,-16 -42,-38 0,-16 12,-34 37,-34 15,0 30,7 38,24l18 -10z"/>
  <path id="9" class="fil0" d="M6007 3096c2,-69 -44,-116 -102,-116 -53,0 -105,39 -105,114 0,63 39,113 107,113 54,0 82,-34 95,-59l-18 -11c-14,29 -40,49 -75,49 -46,0 -89,-36 -86,-91l185 0zm-184 -20c6,-42 37,-75 81,-75 43,0 75,32 80,75l-161 0z"/>
  <path id="10" class="fil0" d="M6826 3022c-17,-24 -45,-42 -84,-42 -53,0 -106,33 -106,112 0,76 51,115 106,115 28,0 62,-11 84,-45l0 39 21 0 0 -387 -21 0 0 208zm-84 -22c54,0 85,41 85,91 0,63 -41,96 -84,96 -44,0 -85,-32 -85,-96 0,-60 39,-91 84,-91z"/>
  <path id="11" class="fil0" d="M7118 3096c2,-69 -44,-116 -102,-116 -53,0 -105,39 -105,114 0,63 39,113 107,113 54,0 82,-34 95,-59l-18 -11c-14,29 -40,49 -75,49 -46,0 -89,-36 -86,-91l185 0zm-184 -20c6,-42 37,-75 81,-75 43,0 75,32 80,75l-161 0z"/>
  <polygon id="12" class="fil0" points="7180,2814 7180,3201 7201,3201 7201,2814 "/>
  <path id="13" class="fil0" d="M7472 3096c2,-69 -44,-116 -102,-116 -53,0 -105,39 -105,114 0,63 39,113 107,113 54,0 82,-34 95,-59l-18 -11c-14,29 -40,49 -75,49 -46,0 -89,-36 -86,-91l185 0zm-184 -20c6,-42 37,-75 81,-75 43,0 75,32 80,75l-161 0z"/>
  <polygon id="14" class="fil0" points="7595,3005 7595,2985 7557,2985 7557,2907 7536,2907 7536,2985 7512,2985 7512,3005 7536,3005 7536,3201 7557,3201 7557,3005 "/>
  <path id="15" class="fil0" d="M7831 3096c2,-69 -44,-116 -102,-116 -53,0 -105,39 -105,114 0,63 39,113 107,113 54,0 82,-34 95,-59l-18 -11c-14,29 -40,49 -75,49 -46,0 -89,-36 -86,-91l185 0zm-184 -20c6,-42 37,-75 81,-75 43,0 75,32 80,75l-161 0z"/>
  <path id="16" class="fil0" d="M8017 3201l21 0 0 -125c0,-43 18,-76 55,-76 47,0 48,48 48,62l0 139 21 0 0 -131c0,-13 1,-71 58,-71 10,0 23,2 32,12 12,12 13,30 13,45l0 144 21 0 0 -144c0,-18 -1,-41 -19,-59 -10,-10 -25,-18 -49,-18 -29,0 -52,13 -64,39 -4,-11 -18,-39 -60,-39 -15,0 -40,4 -56,32l0 -27 -21 0 0 217z"/>
  <path id="17" class="fil0" d="M8539 3022c-21,-29 -50,-42 -84,-42 -63,0 -106,46 -106,113 0,71 49,114 106,114 28,0 63,-11 84,-45l0 39 21 0 0 -217 -21 0 0 38zm-83 -22c37,0 84,27 84,91 0,50 -30,96 -84,96 -55,0 -85,-47 -85,-96 0,-59 41,-91 84,-91z"/>
  <path id="18" class="fil0" d="M8637 3201l21 0 0 -116c0,-27 1,-85 44,-85 10,0 14,3 16,4l11 -19c-8,-4 -17,-5 -23,-5 -23,0 -40,14 -48,33l0 -28 -21 0 0 217z"/>
  <polygon id="19" class="fil0" points="8775,2814 8775,3201 8796,3201 8796,3105 8807,3094 8914,3201 8942,3201 8822,3079 8913,2985 8885,2985 8796,3078 8796,2814 "/>
  <path id="20" class="fil0" d="M6456 3064c-19,24 -30,36 -41,47l-86 -117c25,-17 37,-27 45,-37 7,-8 21,-25 21,-51 0,-37 -27,-66 -64,-66 -38,0 -70,30 -70,69 0,21 11,40 21,56l14 22 -38 24c-26,16 -68,46 -68,105 0,53 39,91 92,91 53,0 96,-36 122,-57l6 -5 41 56 30 0 -53 -72c10,-9 28,-28 49,-56l-21 -10zm-59 63c-23,23 -72,60 -114,60 -40,0 -68,-30 -68,-72 0,-35 18,-60 60,-88l33 -22 89 121zm-98 -175c-7,-11 -16,-25 -16,-40 0,-27 20,-48 44,-48 20,0 43,14 43,43 0,11 -2,21 -10,32 -8,12 -30,29 -46,38l-15 -24z"/>
  <g>
   <path class="fil0" d="M5111 1446l0 5 0 5 -1 5 -1 5 -1 5 -1 5 -2 5 -2 4 -2 4 -2 4 -2 4 -3 4 -3 4 -3 4 -3 4 -3 3 -3 3 -4 3 -4 3 -4 3 -4 3 -4 2 -4 2 -4 2 -4 2 -5 2 -5 1 -5 1 -5 1 -5 1 -5 0 -5 0 0 0 -5 0 -5 0 -5 -1 -5 -1 -5 -1 -5 -1 -5 -2 -4 -2 -4 -2 -4 -2 -4 -2 -4 -3 -4 -3 -4 -3 -4 -3 -3 -3 -3 -3 -3 -4 -3 -4 -3 -4 -3 -4 -2 -4 -2 -4 -2 -4 -2 -4 -2 -5 -1 -5 -1 -5 -1 -5 -1 -5 0 -5 0 -5 0 0 0 -5 0 -5 1 -5 1 -5 1 -5 1 -5 2 -5 2 -4 2 -4 2 -4 2 -4 3 -4 3 -4 3 -4 3 -4 3 -3 3 -3 4 -3 4 -3 4 -3 4 -3 4 -2 4 -2 4 -2 4 -2 5 -2 5 -1 5 -1 5 -1 5 -1 5 0 5 0 0 0 5 0 5 0 5 1 5 1 5 1 5 1 5 2 4 2 4 2 4 2 4 2 4 3 4 3 4 3 4 3 3 3 3 3 3 4 3 4 3 4 3 4 2 4 2 4 2 4 2 4 2 5 1 5 1 5 1 5 1 5 0 5 0 5 0 0zm-89 38l-19 0 0 -38 19 0 0 38zm0 94l-19 0 0 -38 19 0 0 38zm0 94l-19 0 0 -38 19 0 0 38zm0 94l-19 0 0 -38 19 0 0 38zm0 94l-19 0 0 -38 19 0 0 38zm0 94l-19 0 0 -38 19 0 0 38zm0 94l-19 0 0 -38 19 0 0 38zm0 94l-19 0 0 -38 19 0 0 38zm0 94l-19 0 0 -38 19 0 0 38zm0 94l-19 0 0 -38 19 0 0 38zm0 94l-19 0 0 -38 19 0 0 38zm0 94l-19 0 0 -38 19 0 0 38zm0 94l-19 0 0 -38 19 0 0 38zm0 94l-19 0 0 -38 19 0 0 38z"/>
  </g>
  <g>
   <path class="fil0" d="M3056 1446l-90 -113 50 0 0 21 0 5 1 4 1 4 1 4 2 3 2 3 2 3 3 3 3 2 3 2 3 2 3 1 3 1 4 1 4 1 4 0 4 0 4 0 4 -1 3 -1 3 -1 3 -2 3 -2 3 -2 3 -2 2 -3 2 -3 2 -3 1 -4 1 -4 1 -4 0 -5 0 0 0 -22 52 0 0 26 -1 11 -1 10 -2 10 -3 9 -4 8 -5 7 -5 7 -6 6 -7 5 -7 5 -7 4 -8 3 -8 3 -8 2 -8 1 -8 0 -8 0 -8 -1 -8 -2 -8 -2 -8 -3 -7 -4 -7 -4 -7 -5 -6 -6 -5 -6 -5 -7 -4 -8 -3 -8 -2 -9 -1 -10 -1 -11 0 0 0 -31 90 113zm9 38l-19 0 0 -38 19 0 0 38zm0 94l-19 0 0 -38 19 0 0 38zm0 94l-19 0 0 -38 19 0 0 38zm0 94l-19 0 0 -38 19 0 0 38zm0 94l-19 0 0 -38 19 0 0 38zm0 94l-19 0 0 -38 19 0 0 38z"/>
  </g>
  <polygon class="fil0" points="2675,1052 2675,1084 2791,1084 2791,1052 "/>
  <path id="1" class="fil0" d="M2945 905l0 159 -92 0 92 -159zm-122 159l0 34 122 0 0 84 37 0 0 -84 30 0 0 -33 -30 0 0 -217 -34 0 -125 217z"/>
  <path id="2" class="fil0" d="M3093 1017c0,-59 5,-137 52,-137 47,0 53,78 53,137 0,69 -6,138 -53,138 -48,0 -52,-69 -52,-138zm52 171c87,0 91,-96 91,-171 0,-66 -6,-170 -91,-170 -85,0 -91,104 -91,170 0,76 5,171 91,171z"/>
  <path id="3" class="fil0" d="M3427 1000c0,-47 -28,-73 -75,-73 -43,0 -70,26 -70,69 0,39 22,56 60,72 26,11 57,17 57,48 0,30 -19,42 -47,42 -32,0 -42,-17 -42,-49l-33 0c0,53 20,79 77,79 52,0 82,-26 82,-74 0,-46 -37,-61 -73,-74 -26,-9 -45,-18 -45,-45 0,-22 10,-38 35,-38 28,0 39,14 39,43l34 0z"/>
  <path class="fil0" d="M0 2446l21 0 0 -125c0,-43 18,-76 55,-76 47,0 48,48 48,62l0 139 21 0 0 -131c0,-13 1,-71 58,-71 10,0 23,2 32,12 12,12 13,30 13,45l0 144 21 0 0 -144c0,-18 -1,-41 -19,-59 -10,-10 -25,-18 -49,-18 -29,0 -52,13 -64,39 -4,-11 -18,-39 -60,-39 -15,0 -40,4 -56,32l0 -27 -21 0 0 217z"/>
  <path id="1" class="fil0" d="M522 2267c-21,-29 -50,-42 -84,-42 -63,0 -106,46 -106,113 0,71 49,114 106,114 28,0 63,-11 84,-45l0 39 21 0 0 -217 -21 0 0 38zm-83 -22c37,0 84,27 84,91 0,50 -30,96 -84,96 -55,0 -85,-47 -85,-96 0,-59 41,-91 84,-91z"/>
  <path id="2" class="fil0" d="M620 2446l21 0 0 -116c0,-27 1,-85 44,-85 10,0 14,3 16,4l11 -19c-8,-4 -17,-5 -23,-5 -23,0 -40,14 -48,33l0 -28 -21 0 0 217z"/>
  <polygon id="3" class="fil0" points="758,2059 758,2446 779,2446 779,2350 790,2339 897,2446 925,2446 804,2323 896,2229 868,2229 779,2322 779,2059 "/>
  <path id="4" class="fil0" d="M968 2229l0 217 21 0 0 -217 -21 0zm11 -53c11,0 19,-8 19,-20 0,-12 -8,-20 -19,-20 -11,0 -19,8 -19,20 0,12 8,20 19,20z"/>
  <path id="5" class="fil0" d="M1066 2446l21 0 0 -112c0,-21 2,-41 12,-58 8,-14 23,-30 53,-30 26,0 38,13 42,21 8,12 8,29 8,44l0 136 21 0 0 -136c0,-19 -1,-39 -11,-55 -5,-7 -21,-30 -60,-30 -37,0 -56,21 -66,39l0 -34 -21 0 0 217z"/>
  <path id="6" class="fil0" d="M1478 2229l0 38c-19,-27 -47,-42 -83,-42 -68,0 -109,50 -109,113 0,75 54,114 107,114 31,0 64,-13 85,-43l0 33c0,22 -2,108 -88,108 -46,0 -80,-28 -84,-73l-22 0c3,60 50,93 106,93 68,0 109,-47 109,-128l0 -212 -21 0zm-85 15c53,0 86,41 86,92 0,53 -33,95 -87,95 -51,0 -84,-41 -84,-93 0,-50 31,-94 85,-94z"/>
  <path id="7" class="fil0" d="M1700 2229l0 217 21 0 0 -217 -21 0zm11 -53c11,0 19,-8 19,-20 0,-12 -8,-20 -19,-20 -11,0 -19,8 -19,20 0,12 8,20 19,20z"/>
  <path id="8" class="fil0" d="M1912 2260c-10,-23 -31,-35 -57,-35 -33,0 -58,23 -58,56 0,13 5,22 10,28 11,14 29,21 54,31 26,11 41,20 41,44 0,28 -21,48 -48,48 -24,0 -47,-15 -54,-44l-21 6c9,36 39,57 75,57 33,0 71,-20 71,-69 0,-12 -2,-24 -11,-35 -14,-18 -34,-23 -51,-30 -23,-10 -42,-16 -42,-38 0,-16 12,-34 37,-34 15,0 30,7 38,24l18 -10z"/>
  <path id="9" class="fil0" d="M2093 2260c-10,-23 -31,-35 -57,-35 -33,0 -58,23 -58,56 0,13 5,22 10,28 11,14 29,21 54,31 26,11 41,20 41,44 0,28 -21,48 -48,48 -24,0 -47,-15 -54,-44l-21 6c9,36 39,57 75,57 33,0 71,-20 71,-69 0,-12 -2,-24 -11,-35 -14,-18 -34,-23 -51,-30 -23,-10 -42,-16 -42,-38 0,-16 12,-34 37,-34 15,0 30,7 38,24l18 -10z"/>
  <path id="10" class="fil0" d="M2160 2229l0 136c0,18 2,40 16,59 16,21 42,27 62,27 19,0 45,-5 62,-27 15,-19 16,-42 16,-59l0 -136 -21 0 0 131c0,15 -1,38 -14,54 -13,16 -33,18 -43,18 -10,0 -30,-2 -43,-18 -13,-16 -14,-39 -14,-54l0 -131 -21 0z"/>
  <path id="11" class="fil0" d="M2586 2340c2,-69 -44,-116 -102,-116 -53,0 -105,39 -105,114 0,63 39,113 107,113 54,0 82,-34 95,-59l-18 -11c-14,29 -40,49 -75,49 -46,0 -89,-36 -86,-91l185 0zm-184 -20c6,-42 37,-75 81,-75 43,0 75,32 80,75l-161 0z"/>
  <path id="12" class="fil0" d="M2825 2267c-17,-24 -45,-42 -84,-42 -53,0 -106,33 -106,112 0,76 51,115 106,115 28,0 62,-11 84,-45l0 39 21 0 0 -387 -21 0 0 208zm-84 -22c54,0 85,41 85,91 0,63 -41,96 -84,96 -44,0 -85,-32 -85,-96 0,-60 39,-91 84,-91z"/>
  <polygon id="13" class="fil0" points="3046,2059 3046,2446 3068,2446 3068,2059 "/>
  <path id="14" class="fil0" d="M3338 2340c2,-69 -44,-116 -102,-116 -53,0 -105,39 -105,114 0,63 39,113 107,113 54,0 82,-34 95,-59l-18 -11c-14,29 -40,49 -75,49 -46,0 -89,-36 -86,-91l185 0zm-184 -20c6,-42 37,-75 81,-75 43,0 75,32 80,75l-161 0z"/>
  <path id="15" class="fil0" d="M3577 2267c-21,-29 -50,-42 -84,-42 -63,0 -106,46 -106,113 0,71 49,114 106,114 28,0 63,-11 84,-45l0 39 21 0 0 -217 -21 0 0 38zm-83 -22c37,0 84,27 84,91 0,50 -30,96 -84,96 -55,0 -85,-47 -85,-96 0,-59 41,-91 84,-91z"/>
  <path id="16" class="fil0" d="M3789 2260c-10,-23 -31,-35 -57,-35 -33,0 -58,23 -58,56 0,13 5,22 10,28 11,14 29,21 54,31 26,11 41,20 41,44 0,28 -21,48 -48,48 -24,0 -47,-15 -54,-44l-21 6c9,36 39,57 75,57 33,0 71,-20 71,-69 0,-12 -2,-24 -11,-35 -14,-18 -34,-23 -51,-30 -23,-10 -42,-16 -42,-38 0,-16 12,-34 37,-34 15,0 30,7 38,24l18 -10z"/>
  <path id="17" class="fil0" d="M4049 2340c2,-69 -44,-116 -102,-116 -53,0 -105,39 -105,114 0,63 39,113 107,113 54,0 82,-34 95,-59l-18 -11c-14,29 -40,49 -75,49 -46,0 -89,-36 -86,-91l185 0zm-184 -20c6,-42 37,-75 81,-75 43,0 75,32 80,75l-161 0z"/>
  <path id="18" class="fil0" d="M4227 2260c-10,-23 -31,-35 -57,-35 -33,0 -58,23 -58,56 0,13 5,22 10,28 11,14 29,21 54,31 26,11 41,20 41,44 0,28 -21,48 -48,48 -24,0 -47,-15 -54,-44l-21 6c9,36 39,57 75,57 33,0 71,-20 71,-69 0,-12 -2,-24 -11,-35 -14,-18 -34,-23 -51,-30 -23,-10 -42,-16 -42,-38 0,-16 12,-34 37,-34 15,0 30,7 38,24l18 -10z"/>
  <g>
   <path class="fil0" d="M10979 1446l-90 -113 50 0 0 21 0 5 1 4 1 4 1 4 2 3 2 3 2 3 3 3 3 2 3 2 3 2 3 1 3 1 4 1 4 1 4 0 4 0 4 0 4 -1 3 -1 3 -1 3 -2 3 -2 3 -2 3 -2 2 -3 2 -3 2 -3 1 -4 1 -4 1 -4 0 -5 0 0 0 -22 52 0 0 26 -1 11 -1 10 -2 10 -3 9 -4 8 -5 7 -5 7 -6 6 -7 5 -7 5 -7 4 -8 3 -8 3 -8 2 -8 1 -8 0 -8 0 -8 -1 -8 -2 -8 -2 -8 -3 -7 -4 -7 -4 -7 -5 -6 -6 -5 -6 -5 -7 -4 -8 -3 -8 -2 -9 -1 -10 -1 -11 0 0 0 -31 90 113zm9 38l-19 0 0 -38 19 0 0 38zm0 94l-19 0 0 -38 19 0 0 38zm0 94l-19 0 0 -38 19 0 0 38zm0 94l-19 0 0 -38 19 0 0 38zm0 94l-19 0 0 -38 19 0 0 38zm0 94l-19 0 0 -38 19 0 0 38z"/>
  </g>
  <polygon class="fil0" points="10356,956 10356,1052 10280,1052 10280,1084 10356,1084 10356,1181 10388,1181 10388,1084 10465,1084 10465,1052 10388,1052 10388,956 "/>
  <path id="1" class="fil0" d="M10543 961c0,-45 6,-80 49,-80 38,0 50,25 50,59 0,42 -27,71 -55,94 -72,60 -84,89 -84,148l180 0 0 -33 -140 0c5,-33 12,-39 77,-98 34,-30 60,-59 60,-110 0,-56 -29,-93 -86,-93 -60,0 -88,43 -88,98l0 15 37 0z"/>
  <path id="2" class="fil0" d="M10774 933l-35 0 0 248 35 0 0 -168c0,-39 25,-57 50,-57 29,0 38,17 38,43l0 182 35 0 0 -168c0,-39 24,-57 51,-57 30,0 37,19 37,46l0 178 35 0 0 -191c0,-45 -26,-63 -61,-63 -24,0 -49,12 -65,38 -9,-28 -32,-38 -58,-38 -30,0 -50,17 -61,34l0 0 0 -27z"/>
  <path id="3" class="fil0" d="M11112 961c0,-45 6,-80 49,-80 38,0 50,25 50,59 0,42 -27,71 -55,94 -72,60 -84,89 -84,148l180 0 0 -33 -140 0c5,-33 12,-39 77,-98 34,-30 60,-59 60,-110 0,-56 -29,-93 -86,-93 -60,0 -88,43 -88,98l0 15 37 0z"/>
  <path id="4" class="fil0" d="M11335 1017c0,-59 5,-137 52,-137 47,0 53,78 53,137 0,69 -6,138 -53,138 -48,0 -52,-69 -52,-138zm52 171c87,0 91,-96 91,-171 0,-66 -6,-170 -91,-170 -85,0 -91,104 -91,170 0,76 5,171 91,171z"/>
  <path id="5" class="fil0" d="M11669 1000c0,-47 -28,-73 -75,-73 -43,0 -70,26 -70,69 0,39 22,56 60,72 26,11 57,17 57,48 0,30 -19,42 -47,42 -32,0 -42,-17 -42,-49l-33 0c0,53 20,79 77,79 52,0 82,-26 82,-74 0,-46 -37,-61 -73,-74 -26,-9 -45,-18 -45,-45 0,-22 10,-38 35,-38 28,0 39,14 39,43l34 0z"/>
  <path class="fil0" d="M8434 2267c-17,-24 -45,-42 -84,-42 -53,0 -106,33 -106,112 0,76 51,115 106,115 28,0 62,-11 84,-45l0 39 21 0 0 -387 -21 0 0 208zm-84 -22c54,0 85,41 85,91 0,63 -41,96 -84,96 -44,0 -85,-32 -85,-96 0,-60 39,-91 84,-91z"/>
  <path id="1" class="fil0" d="M8725 2340c2,-69 -44,-116 -102,-116 -53,0 -105,39 -105,114 0,63 39,113 107,113 54,0 82,-34 95,-59l-18 -11c-14,29 -40,49 -75,49 -46,0 -89,-36 -86,-91l185 0zm-184 -20c6,-42 37,-75 81,-75 43,0 75,32 80,75l-161 0z"/>
  <polygon id="2" class="fil0" points="8788,2059 8788,2446 8809,2446 8809,2059 "/>
  <path id="3" class="fil0" d="M9079 2340c2,-69 -44,-116 -102,-116 -53,0 -105,39 -105,114 0,63 39,113 107,113 54,0 82,-34 95,-59l-18 -11c-14,29 -40,49 -75,49 -46,0 -89,-36 -86,-91l185 0zm-184 -20c6,-42 37,-75 81,-75 43,0 75,32 80,75l-161 0z"/>
  <polygon id="4" class="fil0" points="9203,2250 9203,2229 9165,2229 9165,2152 9144,2152 9144,2229 9120,2229 9120,2250 9144,2250 9144,2446 9165,2446 9165,2250 "/>
  <path id="5" class="fil0" d="M9439 2340c2,-69 -44,-116 -102,-116 -53,0 -105,39 -105,114 0,63 39,113 107,113 54,0 82,-34 95,-59l-18 -11c-14,29 -40,49 -75,49 -46,0 -89,-36 -86,-91l185 0zm-184 -20c6,-42 37,-75 81,-75 43,0 75,32 80,75l-161 0z"/>
  <path id="6" class="fil0" d="M9625 2229l0 217 21 0 0 -217 -21 0zm11 -53c11,0 19,-8 19,-20 0,-12 -8,-20 -19,-20 -11,0 -19,8 -19,20 0,12 8,20 19,20z"/>
  <path id="7" class="fil0" d="M9837 2260c-10,-23 -31,-35 -57,-35 -33,0 -58,23 -58,56 0,13 5,22 10,28 11,14 29,21 54,31 26,11 41,20 41,44 0,28 -21,48 -48,48 -24,0 -47,-15 -54,-44l-21 6c9,36 39,57 75,57 33,0 71,-20 71,-69 0,-12 -2,-24 -11,-35 -14,-18 -34,-23 -51,-30 -23,-10 -42,-16 -42,-38 0,-16 12,-34 37,-34 15,0 30,7 38,24l18 -10z"/>
  <path id="8" class="fil0" d="M10019 2260c-10,-23 -31,-35 -57,-35 -33,0 -58,23 -58,56 0,13 5,22 10,28 11,14 29,21 54,31 26,11 41,20 41,44 0,28 -21,48 -48,48 -24,0 -47,-15 -54,-44l-21 6c9,36 39,57 75,57 33,0 71,-20 71,-69 0,-12 -2,-24 -11,-35 -14,-18 -34,-23 -51,-30 -23,-10 -42,-16 -42,-38 0,-16 12,-34 37,-34 15,0 30,7 38,24l18 -10z"/>
  <path id="9" class="fil0" d="M10086 2229l0 136c0,18 2,40 16,59 16,21 42,27 62,27 19,0 45,-5 62,-27 15,-19 16,-42 16,-59l0 -136 -21 0 0 131c0,15 -1,38 -14,54 -13,16 -33,18 -43,18 -10,0 -30,-2 -43,-18 -13,-16 -14,-39 -14,-54l0 -131 -21 0z"/>
  <path id="10" class="fil0" d="M10512 2340c2,-69 -44,-116 -102,-116 -53,0 -105,39 -105,114 0,63 39,113 107,113 54,0 82,-34 95,-59l-18 -11c-14,29 -40,49 -75,49 -46,0 -89,-36 -86,-91l185 0zm-184 -20c6,-42 37,-75 81,-75 43,0 75,32 80,75l-161 0z"/>
  <path id="11" class="fil0" d="M10750 2267c-17,-24 -45,-42 -84,-42 -53,0 -106,33 -106,112 0,76 51,115 106,115 28,0 62,-11 84,-45l0 39 21 0 0 -387 -21 0 0 208zm-84 -22c54,0 85,41 85,91 0,63 -41,96 -84,96 -44,0 -85,-32 -85,-96 0,-60 39,-91 84,-91z"/>
  <polygon id="12" class="fil0" points="10972,2059 10972,2446 10993,2446 10993,2059 "/>
  <path id="13" class="fil0" d="M11263 2340c2,-69 -44,-116 -102,-116 -53,0 -105,39 -105,114 0,63 39,113 107,113 54,0 82,-34 95,-59l-18 -11c-14,29 -40,49 -75,49 -46,0 -89,-36 -86,-91l185 0zm-184 -20c6,-42 37,-75 81,-75 43,0 75,32 80,75l-161 0z"/>
  <path id="14" class="fil0" d="M11502 2267c-21,-29 -50,-42 -84,-42 -63,0 -106,46 -106,113 0,71 49,114 106,114 28,0 63,-11 84,-45l0 39 21 0 0 -217 -21 0 0 38zm-83 -22c37,0 84,27 84,91 0,50 -30,96 -84,96 -55,0 -85,-47 -85,-96 0,-59 41,-91 84,-91z"/>
  <path id="15" class="fil0" d="M11714 2260c-10,-23 -31,-35 -57,-35 -33,0 -58,23 -58,56 0,13 5,22 10,28 11,14 29,21 54,31 26,11 41,20 41,44 0,28 -21,48 -48,48 -24,0 -47,-15 -54,-44l-21 6c9,36 39,57 75,57 33,0 71,-20 71,-69 0,-12 -2,-24 -11,-35 -14,-18 -34,-23 -51,-30 -23,-10 -42,-16 -42,-38 0,-16 12,-34 37,-34 15,0 30,7 38,24l18 -10z"/>
  <path id="16" class="fil0" d="M11975 2340c2,-69 -44,-116 -102,-116 -53,0 -105,39 -105,114 0,63 39,113 107,113 54,0 82,-34 95,-59l-18 -11c-14,29 -40,49 -75,49 -46,0 -89,-36 -86,-91l185 0zm-184 -20c6,-42 37,-75 81,-75 43,0 75,32 80,75l-161 0z"/>
  <path id="17" class="fil0" d="M12152 2260c-10,-23 -31,-35 -57,-35 -33,0 -58,23 -58,56 0,13 5,22 10,28 11,14 29,21 54,31 26,11 41,20 41,44 0,28 -21,48 -48,48 -24,0 -47,-15 -54,-44l-21 6c9,36 39,57 75,57 33,0 71,-20 71,-69 0,-12 -2,-24 -11,-35 -14,-18 -34,-23 -51,-30 -23,-10 -42,-16 -42,-38 0,-16 12,-34 37,-34 15,0 30,7 38,24l18 -10z"/>
  <path id="18" class="fil0" d="M12342 2229l0 217 21 0 0 -217 -21 0zm11 -53c11,0 19,-8 19,-20 0,-12 -8,-20 -19,-20 -11,0 -19,8 -19,20 0,12 8,20 19,20z"/>
  <path id="19" class="fil0" d="M12515 2250l0 -20 -54 0 0 -99c0,-50 19,-58 38,-58 6,0 11,1 16,3l0 -20c-4,-1 -10,-3 -19,-3 -25,0 -57,13 -57,74l0 103 -24 0 0 20 24 0 0 196 21 0 0 -196 54 0z"/>
  <path id="20" class="fil0" d="M12677 2446l21 0 0 -125c0,-43 18,-76 55,-76 47,0 48,48 48,62l0 139 21 0 0 -131c0,-13 1,-71 58,-71 10,0 23,2 32,12 12,12 13,30 13,45l0 144 21 0 0 -144c0,-18 -1,-41 -19,-59 -10,-10 -25,-18 -49,-18 -29,0 -52,13 -64,39 -4,-11 -18,-39 -60,-39 -15,0 -40,4 -56,32l0 -27 -21 0 0 217z"/>
  <path id="21" class="fil0" d="M13199 2267c-21,-29 -50,-42 -84,-42 -63,0 -106,46 -106,113 0,71 49,114 106,114 28,0 63,-11 84,-45l0 39 21 0 0 -217 -21 0 0 38zm-83 -22c37,0 84,27 84,91 0,50 -30,96 -84,96 -55,0 -85,-47 -85,-96 0,-59 41,-91 84,-91z"/>
  <path id="22" class="fil0" d="M13297 2446l21 0 0 -116c0,-27 1,-85 44,-85 10,0 14,3 16,4l11 -19c-8,-4 -17,-5 -23,-5 -23,0 -40,14 -48,33l0 -28 -21 0 0 217z"/>
  <polygon id="23" class="fil0" points="13435,2059 13435,2446 13456,2446 13456,2350 13467,2339 13574,2446 13603,2446 13482,2323 13573,2229 13545,2229 13456,2322 13456,2059 "/>
  <path id="24" class="fil0" d="M13883 2260c-10,-23 -31,-35 -57,-35 -33,0 -58,23 -58,56 0,13 5,22 10,28 11,14 29,21 54,31 26,11 41,20 41,44 0,28 -21,48 -48,48 -24,0 -47,-15 -54,-44l-21 6c9,36 39,57 75,57 33,0 71,-20 71,-69 0,-12 -2,-24 -11,-35 -14,-18 -34,-23 -51,-30 -23,-10 -42,-16 -42,-38 0,-16 12,-34 37,-34 15,0 30,7 38,24l18 -10z"/>
  <polygon id="25" class="fil0" points="14011,2250 14011,2229 13973,2229 13973,2152 13952,2152 13952,2229 13928,2229 13928,2250 13952,2250 13952,2446 13973,2446 13973,2250 "/>
  <path id="26" class="fil0" d="M14053 2229l0 217 21 0 0 -217 -21 0zm11 -53c11,0 19,-8 19,-20 0,-12 -8,-20 -19,-20 -11,0 -19,8 -19,20 0,12 8,20 19,20z"/>
  <polygon id="27" class="fil0" points="14151,2059 14151,2446 14172,2446 14172,2059 "/>
  <polygon id="28" class="fil0" points="14249,2059 14249,2446 14270,2446 14270,2059 "/>
  <path id="29" class="fil0" d="M14663 2340c2,-69 -44,-116 -102,-116 -53,0 -105,39 -105,114 0,63 39,113 107,113 54,0 82,-34 95,-59l-18 -11c-14,29 -40,49 -75,49 -46,0 -89,-36 -86,-91l185 0zm-184 -20c6,-42 37,-75 81,-75 43,0 75,32 80,75l-161 0z"/>
  <polygon id="30" class="fil0" points="14692,2446 14718,2446 14794,2346 14870,2446 14896,2446 14809,2332 14887,2229 14861,2229 14794,2318 14726,2229 14700,2229 14780,2332 "/>
  <path id="31" class="fil0" d="M14938 2229l0 217 21 0 0 -217 -21 0zm11 -53c11,0 19,-8 19,-20 0,-12 -8,-20 -19,-20 -11,0 -19,8 -19,20 0,12 8,20 19,20z"/>
  <path id="32" class="fil0" d="M15151 2260c-10,-23 -31,-35 -57,-35 -33,0 -58,23 -58,56 0,13 5,22 10,28 11,14 29,21 54,31 26,11 41,20 41,44 0,28 -21,48 -48,48 -24,0 -47,-15 -54,-44l-21 6c9,36 39,57 75,57 33,0 71,-20 71,-69 0,-12 -2,-24 -11,-35 -14,-18 -34,-23 -51,-30 -23,-10 -42,-16 -42,-38 0,-16 12,-34 37,-34 15,0 30,7 38,24l18 -10z"/>
  <polygon id="33" class="fil0" points="15278,2250 15278,2229 15240,2229 15240,2152 15219,2152 15219,2229 15195,2229 15195,2250 15219,2250 15219,2446 15240,2446 15240,2250 "/>
  <g>
   <path class="fil0" d="M7782 1446l0 5 0 5 -1 5 -1 5 -1 5 -1 5 -2 5 -2 4 -2 4 -2 4 -2 4 -3 4 -3 4 -3 4 -3 4 -3 3 -3 3 -4 3 -4 3 -4 3 -4 3 -4 2 -4 2 -4 2 -4 2 -5 2 -5 1 -5 1 -5 1 -5 1 -5 0 -5 0 0 0 -5 0 -5 0 -5 -1 -5 -1 -5 -1 -5 -1 -5 -2 -4 -2 -4 -2 -4 -2 -4 -2 -4 -3 -4 -3 -4 -3 -4 -3 -3 -3 -3 -3 -3 -4 -3 -4 -3 -4 -3 -4 -2 -4 -2 -4 -2 -4 -2 -4 -2 -5 -1 -5 -1 -5 -1 -5 -1 -5 0 -5 0 -5 0 0 0 -5 0 -5 1 -5 1 -5 1 -5 1 -5 2 -5 2 -4 2 -4 2 -4 2 -4 3 -4 3 -4 3 -4 3 -4 3 -3 3 -3 4 -3 4 -3 4 -3 4 -3 4 -2 4 -2 4 -2 4 -2 5 -2 5 -1 5 -1 5 -1 5 -1 5 0 5 0 0 0 5 0 5 0 5 1 5 1 5 1 5 1 5 2 4 2 4 2 4 2 4 2 4 3 4 3 4 3 4 3 3 3 3 3 3 4 3 4 3 4 3 4 2 4 2 4 2 4 2 4 2 5 1 5 1 5 1 5 1 5 0 5 0 5 0 0zm-89 38l-19 0 0 -38 19 0 0 38zm0 94l-19 0 0 -38 19 0 0 38zm0 94l-19 0 0 -38 19 0 0 38zm0 94l-19 0 0 -38 19 0 0 38zm0 94l-19 0 0 -38 19 0 0 38zm0 94l-19 0 0 -38 19 0 0 38zm-64 49l0 -19 38 0 0 19 -38 0zm-94 0l0 -19 38 0 0 19 -38 0zm-94 0l0 -19 38 0 0 19 -38 0zm-94 0l0 -19 38 0 0 19 -38 0zm-94 0l0 -19 38 0 0 19 -38 0zm-94 0l0 -19 38 0 0 19 -38 0zm-94 0l0 -19 38 0 0 19 -38 0zm-94 0l0 -19 38 0 0 19 -38 0zm-94 0l0 -19 38 0 0 19 -38 0zm-94 0l0 -19 38 0 0 19 -38 0zm-94 0l0 -19 38 0 0 19 -38 0zm-94 0l0 -19 38 0 0 19 -38 0zm-94 0l0 -19 38 0 0 19 -38 0zm-94 0l0 -19 38 0 0 19 -38 0zm-94 0l0 -19 38 0 0 19 -38 0zm-94 0l0 -19 38 0 0 19 -38 0zm-94 0l0 -19 38 0 0 19 -38 0zm-94 0l0 -19 38 0 0 19 -38 0zm-94 0l0 -19 38 0 0 19 -38 0zm-94 0l0 -19 38 0 0 19 -38 0zm-94 0l0 -19 38 0 0 19 -38 0zm-94 0l0 -19 38 0 0 19 -38 0zm-94 0l0 -19 38 0 0 19 -38 0zm-94 0l0 -19 38 0 0 19 -38 0zm-94 0l0 -19 38 0 0 19 -38 0zm-94 0l0 -19 38 0 0 19 -38 0zm-94 0l0 -19 38 0 0 19 -38 0zm-94 0l0 -19 38 0 0 19 -38 0zm-78 -19l21 0 0 19 -21 0 0 -19z"/>
  </g>
  <path class="fil0" d="M4964 1017c0,-59 5,-137 52,-137 47,0 53,78 53,137 0,69 -6,138 -53,138 -48,0 -52,-69 -52,-138zm52 171c87,0 91,-96 91,-171 0,-66 -6,-170 -91,-170 -85,0 -91,104 -91,170 0,76 5,171 91,171z"/>
  <path id="1" class="fil0" d="M5298 1000c0,-47 -28,-73 -75,-73 -43,0 -70,26 -70,69 0,39 22,56 60,72 26,11 57,17 57,48 0,30 -19,42 -47,42 -32,0 -42,-17 -42,-49l-33 0c0,53 20,79 77,79 52,0 82,-26 82,-74 0,-46 -37,-61 -73,-74 -26,-9 -45,-18 -45,-45 0,-22 10,-38 35,-38 28,0 39,14 39,43l34 0z"/>
  <polygon class="fil0" points="7344,956 7344,1052 7268,1052 7268,1084 7344,1084 7344,1181 7376,1181 7376,1084 7453,1084 7453,1052 7376,1052 7376,956 "/>
  <path id="1" class="fil0" d="M7584 1003c43,0 54,34 54,71 0,34 -7,81 -51,81 -33,0 -54,-21 -54,-85 0,-31 8,-67 52,-67zm4 186c51,0 89,-46 89,-117 0,-54 -26,-102 -86,-102 -24,0 -49,13 -62,41l0 0c2,-37 10,-130 56,-130 28,0 45,12 46,46l37 0c0,-46 -33,-80 -77,-80 -96,0 -98,117 -98,186 0,68 7,155 96,155l0 0z"/>
  <path id="2" class="fil0" d="M7753 1017c0,-59 5,-137 52,-137 47,0 53,78 53,137 0,69 -6,138 -53,138 -48,0 -52,-69 -52,-138zm52 171c87,0 91,-96 91,-171 0,-66 -6,-170 -91,-170 -85,0 -91,104 -91,170 0,76 5,171 91,171z"/>
  <path id="3" class="fil0" d="M8088 1000c0,-47 -28,-73 -75,-73 -43,0 -70,26 -70,69 0,39 22,56 60,72 26,11 57,17 57,48 0,30 -19,42 -47,42 -32,0 -42,-17 -42,-49l-33 0c0,53 20,79 77,79 52,0 82,-26 82,-74 0,-46 -37,-61 -73,-74 -26,-9 -45,-18 -45,-45 0,-22 10,-38 35,-38 28,0 39,14 39,43l34 0z"/>
  <path class="fil1 str0" d="M5012 608c0,-83 88,-83 133,-83 544,0 509,0 1054,0 50,0 150,0 150,-108m1336 191c0,-83 -88,-83 -133,-83 -544,0 -509,0 -1054,0 -50,0 -150,0 -150,-108"/>
  <polygon class="fil0" points="5081,30 5081,296 5172,296 5172,280 5098,280 5098,30 "/>
  <path id="1" class="fil0" d="M5352 217c2,-52 -33,-87 -77,-87 -40,0 -79,29 -79,86 0,47 29,85 80,85 40,0 62,-26 71,-44l-14 -8c-10,21 -30,37 -57,37 -34,0 -66,-27 -64,-68l139 0zm-138 -15c4,-31 28,-57 61,-57 32,0 56,24 60,57l-121 0z"/>
  <path id="2" class="fil0" d="M5531 162c-16,-22 -38,-32 -63,-32 -47,0 -79,35 -79,85 0,53 37,86 79,86 21,0 47,-8 63,-33l0 29 16 0 0 -162 -16 0 0 28zm-62 -17c28,0 63,20 63,68 0,37 -22,72 -63,72 -41,0 -64,-35 -64,-72 0,-44 31,-68 63,-68z"/>
  <path id="3" class="fil0" d="M5690 156c-8,-18 -23,-26 -43,-26 -25,0 -43,17 -43,42 0,10 4,16 7,21 8,10 22,16 41,23 19,8 31,15 31,33 0,21 -16,36 -36,36 -18,0 -35,-11 -41,-33l-16 5c7,27 29,43 56,43 25,0 53,-15 53,-52 0,-9 -2,-18 -8,-26 -10,-13 -25,-18 -39,-23 -18,-7 -32,-12 -32,-29 0,-12 9,-26 27,-26 12,0 23,6 28,18l14 -7z"/>
  <path id="4" class="fil0" d="M5886 217c2,-52 -33,-87 -77,-87 -40,0 -79,29 -79,86 0,47 29,85 80,85 40,0 62,-26 71,-44l-14 -8c-10,21 -30,37 -57,37 -34,0 -66,-27 -64,-68l139 0zm-138 -15c4,-31 28,-57 61,-57 32,0 56,24 60,57l-121 0z"/>
  <path id="5" class="fil0" d="M5992 296c23,0 64,-4 98,-37 28,-28 38,-66 38,-96 0,-29 -10,-68 -38,-96 -33,-33 -74,-37 -98,-37l-53 0 0 265 53 0zm-35 -250l35 0c70,0 118,49 118,117 0,69 -48,117 -118,117l-35 0 0 -234z"/>
  <path id="6" class="fil0" d="M6179 133l0 102c0,13 1,30 12,45 12,16 32,20 46,20 14,0 34,-4 46,-20 11,-14 12,-31 12,-45l0 -102 -16 0 0 98c0,12 0,29 -10,41 -10,12 -25,13 -32,13 -8,0 -22,-1 -32,-13 -10,-12 -10,-29 -10,-41l0 -98 -16 0z"/>
  <path id="7" class="fil0" d="M6353 296l16 0 0 -87c0,-20 0,-64 33,-64 7,0 10,2 12,3l8 -14c-6,-3 -13,-4 -17,-4 -18,0 -30,11 -36,25l0 -21 -16 0 0 162z"/>
  <path id="8" class="fil0" d="M6588 162c-16,-22 -38,-32 -63,-32 -47,0 -79,35 -79,85 0,53 37,86 79,86 21,0 47,-8 63,-33l0 29 16 0 0 -162 -16 0 0 28zm-62 -17c28,0 63,20 63,68 0,37 -22,72 -63,72 -41,0 -64,-35 -64,-72 0,-44 31,-68 63,-68z"/>
  <polygon id="9" class="fil0" points="6707,148 6707,133 6679,133 6679,75 6663,75 6663,133 6645,133 6645,148 6663,148 6663,296 6679,296 6679,148 "/>
  <path id="10" class="fil0" d="M6739 133l0 162 16 0 0 -162 -16 0zm8 -39c8,0 14,-6 14,-15 0,-9 -6,-15 -14,-15 -8,0 -14,6 -14,15 0,9 6,15 14,15z"/>
  <path id="11" class="fil0" d="M6887 130c-48,0 -85,37 -85,85 0,48 37,85 85,85 48,0 85,-37 85,-85 0,-48 -37,-85 -85,-85zm0 155c-39,0 -68,-31 -68,-70 0,-39 29,-70 68,-70 39,0 68,31 68,70 0,39 -29,70 -68,70z"/>
  <path id="12" class="fil0" d="M7019 296l16 0 0 -84c0,-16 2,-31 9,-44 6,-11 18,-23 40,-23 19,0 28,10 32,16 6,9 6,21 6,33l0 102 16 0 0 -102c0,-14 -1,-29 -8,-41 -4,-6 -16,-23 -45,-23 -27,0 -42,16 -50,29l0 -25 -16 0 0 162z"/>
  <path id="13" class="fil0" d="M7234 0c-27,78 -28,170 -28,182 0,55 8,128 27,183l16 -9c-21,-70 -25,-136 -25,-174 0,-21 2,-96 25,-173l-15 -9z"/>
  <polygon id="14" class="fil0" points="7313,30 7313,296 7330,296 7330,30 "/>
  <path id="15" class="fil0" d="M7454 170c46,0 77,-26 77,-70 0,-45 -34,-69 -78,-69l-51 0 0 265 18 0 0 -126 34 0zm-34 -123l32 0c39,0 61,21 61,54 0,33 -23,54 -58,54l-35 0 0 -107z"/>
  <path id="16" class="fil0" d="M7572 9c23,77 25,152 25,173 0,38 -4,103 -25,174l16 9c19,-55 27,-127 27,-183 0,-12 0,-104 -28,-182l-15 9z"/>
  <path class="fil0" d="M1012 1288l-35 0 0 67 -34 0 0 30 34 0 0 177c0,38 15,41 37,41l39 0 0 -30 -24 0c-14,0 -16,-5 -16,-19l0 -169 41 0 0 -30 -41 0 0 -67z"/>
 </g>
</svg>
